<?xml version="1.0" encoding="UTF-8"?>
<svg version="1.1" xmlns="http://www.w3.org/2000/svg" width="512" height="512">
<path d="M0 0 C4.57296056 1.17816298 8.97702972 0.53520035 13.62817383 0.08569336 C43.58260307 -2.59460732 77.05501889 1.5325082 102.07421875 19.58984375 C105.6533886 21.96025887 109.40912727 22.53479862 113.57421875 23.21484375 C132.80137382 26.36694688 148.16408306 35.20647966 162.07421875 48.77734375 C163.15316406 49.79828125 163.15316406 49.79828125 164.25390625 50.83984375 C167.4826312 53.95891389 170.24628346 56.95367631 172.69921875 60.71484375 C175.41190068 64.50375276 178.77382885 66.70230597 182.69921875 69.08984375 C202.54192464 81.20268127 216.95211048 100.73914448 222.4609375 123.4296875 C224.18037157 133.50552249 224.2154594 145.10606454 222.4921875 155.1796875 C222.02795754 158.064855 222.49134468 159.93030902 223.07421875 162.77734375 C223.93166037 174.38769456 224.22868498 186.11234619 219.07421875 196.77734375 C218.72359375 197.55722656 218.37296875 198.33710938 218.01171875 199.140625 C214.29710459 206.60854722 208.57171362 213.07433058 201.99609375 218.15625 C198.73330456 221.08316383 197.49379419 223.46809085 195.76171875 227.46484375 C189.21034947 241.43975734 177.6861092 250.67101712 163.38671875 256.21484375 C155.36861749 258.79714401 147.48887412 260.09487791 139.07421875 259.77734375 C138.96078125 260.78667969 138.84734375 261.79601562 138.73046875 262.8359375 C135.42996187 282.65862468 121.40048488 301.34672601 105.44921875 313.02734375 C92.89034627 321.78454594 78.874249 327.1784674 64.07421875 330.77734375 C62.17929687 331.256875 62.17929687 331.256875 60.24609375 331.74609375 C41.55422792 335.99146081 14.72836078 337.60441477 -2.92578125 328.77734375 C-2.98765625 330.01484375 -3.04953125 331.25234375 -3.11328125 332.52734375 C-4.24990855 342.43001446 -8.88818323 351.75251814 -15.92578125 358.77734375 C-18.91363562 361.1432366 -21.97687194 363.37687336 -25.0625 365.61328125 C-37.37561115 374.91950714 -43.19281901 389.98111124 -45.92578125 404.77734375 C-46.10238281 405.69918457 -46.27898437 406.62102539 -46.4609375 407.57080078 C-48.87942295 422.45960183 -48.28429145 437.68108064 -48.30664062 452.72021484 C-48.31615276 456.53125193 -48.34987258 460.34148667 -48.38671875 464.15234375 C-48.38167328 465.31596436 -48.37662781 466.47958496 -48.37142944 467.6784668 C-48.45144565 474.26786556 -48.94992128 478.44096145 -52.92578125 483.77734375 C-57.26364468 487.70207733 -59.80989761 488.95149458 -65.61328125 489.08984375 C-66.62777344 489.12722656 -67.64226562 489.16460937 -68.6875 489.203125 C-76.40872838 488.18790921 -80.88228036 483.13490086 -85.80078125 477.58984375 C-87.02580592 476.23688724 -88.25236614 474.88531948 -89.48046875 473.53515625 C-90.3636377 472.5611084 -90.3636377 472.5611084 -91.26464844 471.56738281 C-93.39635096 469.27025716 -95.64943157 467.11773039 -97.92578125 464.96484375 C-106.14251154 456.85542151 -108.97813605 449.19415962 -109.2421875 437.8515625 C-109.2629686 437.10397171 -109.28374969 436.35638092 -109.30516052 435.58613586 C-109.37022314 433.21245979 -109.42933835 430.83867888 -109.48828125 428.46484375 C-109.53150771 426.8495988 -109.57512329 425.23436422 -109.61914062 423.61914062 C-109.72585976 419.67198076 -109.82724744 415.72471608 -109.92578125 411.77734375 C-110.61285156 411.58398438 -111.29992187 411.390625 -112.0078125 411.19140625 C-113.35939453 410.80082031 -113.35939453 410.80082031 -114.73828125 410.40234375 C-115.63160156 410.14710938 -116.52492187 409.891875 -117.4453125 409.62890625 C-119.92578125 408.77734375 -119.92578125 408.77734375 -122.92578125 406.77734375 C-126.3158532 406.75772637 -126.3158532 406.75772637 -130.17578125 407.15234375 C-131.63257629 407.26229055 -133.08961943 407.36899199 -134.546875 407.47265625 C-135.28276855 407.52583008 -136.01866211 407.57900391 -136.77685547 407.63378906 C-162.48227206 409.35098799 -189.40684003 403.64319614 -209.26293945 386.42236328 C-223.25649357 373.63072213 -232.82969722 357.3647488 -234.1015625 338.1171875 C-234.11098518 336.33630035 -234.03244415 334.55505881 -233.92578125 332.77734375 C-234.53164062 332.63039063 -235.1375 332.4834375 -235.76171875 332.33203125 C-252.20628016 327.92994866 -263.88853486 316.84681103 -272.32421875 302.37890625 C-277.78941068 292.14409226 -280.06589536 281.88377707 -281.06713867 270.44921875 C-281.66361242 264.48574904 -283.21103457 259.44386086 -285.70703125 253.96484375 C-293.65636611 233.17427565 -289.73927282 208.18763403 -281.171875 188.328125 C-279.92578125 185.77734375 -279.92578125 185.77734375 -278.328125 183.38671875 C-276.56615174 180.10817241 -276.36974516 177.41404717 -276.05078125 173.71484375 C-274.16688301 156.61130591 -264.61424595 142.91706937 -251.92578125 131.77734375 C-250.60793877 131.02053928 -249.27692473 130.28545363 -247.92578125 129.58984375 C-245.18594589 127.79567261 -244.90899407 126.71385092 -244.046875 123.453125 C-243.67436547 121.39921974 -243.35440657 119.34257018 -243.04785156 117.27783203 C-239.69730503 95.28054955 -224.78507175 75.68740699 -207.31201172 62.56542969 C-199.02375324 56.60408222 -187.38798949 48.77734375 -176.92578125 48.77734375 C-176.68214844 48.05289063 -176.43851562 47.3284375 -176.1875 46.58203125 C-173.89496651 41.48593514 -169.72742918 37.80075448 -165.92578125 33.77734375 C-165.37921875 33.15472656 -164.83265625 32.53210937 -164.26953125 31.890625 C-151.02079355 17.39136869 -129.16393253 8.86432072 -109.92407227 7.65112305 C-107.7566526 7.5714478 -105.5946398 7.53701457 -103.42578125 7.52734375 C-102.25752808 7.52142212 -102.25752808 7.52142212 -101.06567383 7.51538086 C-94.47913332 7.58032896 -88.44132518 8.63983288 -82.0625 10.21875 C-75.89120191 11.31774829 -71.76990178 8.81294261 -66.42578125 5.96484375 C-46.14436982 -4.51676527 -21.88917102 -7.02819869 0 0 Z M-67.56640625 27.93359375 C-70.876515 30.52030125 -73.83191523 31.08707703 -77.92578125 30.77734375 C-81.05473604 29.92020986 -84.06717679 28.87377982 -87.1171875 27.76953125 C-102.41268067 22.36611642 -120.39724258 26.53126235 -134.640625 33.05078125 C-145.54701227 38.78279453 -155.2412915 46.79189046 -161.30078125 57.58984375 C-165.03368663 63.77974228 -169.16625209 65.00788252 -175.92578125 66.77734375 C-194.16926816 72.83008941 -210.12877547 86.53426925 -218.97265625 103.59765625 C-223.4544107 112.73714141 -225.99302967 120.98906015 -226.58203125 131.1640625 C-226.96703644 134.09097699 -227.51558127 136.17554622 -228.92578125 138.77734375 C-231.2109375 140.48046875 -231.2109375 140.48046875 -233.98828125 142.02734375 C-245.2044523 148.84501635 -252.49813368 158.05242266 -257.30078125 170.27734375 C-257.98885279 173.59962049 -257.98885279 173.59962049 -257.97265625 176.3046875 C-258.15393955 183.05749057 -259.59302298 187.72835458 -262.73828125 193.58984375 C-271.46652904 210.06679701 -274.0963421 228.59590552 -269.11328125 246.77734375 C-268.06821001 249.98062725 -266.92163043 252.78501067 -265.31640625 255.75 C-263.76016673 259.13788097 -263.56254642 261.50595391 -263.48828125 265.21484375 C-262.67714392 280.00250126 -258.10521564 295.44257774 -246.92578125 305.77734375 C-239.07747839 312.11940667 -231.74334715 315.4218669 -221.90625 317.25 C-219.92578125 317.77734375 -219.92578125 317.77734375 -216.92578125 319.77734375 C-216.4140625 321.58984375 -216.4140625 321.58984375 -216.23828125 323.77734375 C-216.13580078 324.98970703 -216.13580078 324.98970703 -216.03125 326.2265625 C-215.92916916 328.69540654 -215.97499655 331.12085787 -216.05078125 333.58984375 C-216.13802782 347.68016535 -209.78603154 359.48461799 -200.265625 369.49609375 C-185.37684629 384.0120316 -165.00131302 390.09403368 -144.484375 390.015625 C-139.36164131 389.6726099 -134.36320554 388.76706576 -129.33251953 387.75683594 C-124.60047271 386.85459653 -120.69917183 386.63627041 -115.92578125 387.77734375 C-114.21897178 389.40287658 -112.5491793 391.0685037 -110.92578125 392.77734375 C-106.42141914 394.07962531 -102.08373025 393.73538521 -97.44921875 393.51953125 C-94.92578125 393.77734375 -94.92578125 393.77734375 -93.29211426 395.01321411 C-91.56234553 397.2465908 -91.5482601 398.45630426 -91.54101562 401.26123047 C-91.53090454 402.16582001 -91.52079346 403.07040955 -91.51037598 404.00241089 C-91.51339722 404.97743561 -91.51641846 405.95246033 -91.51953125 406.95703125 C-91.50327698 408.46440353 -91.50327698 408.46440353 -91.48669434 410.00222778 C-91.45237213 413.2189984 -91.43682939 416.43541394 -91.42578125 419.65234375 C-91.41121664 423.87924821 -91.37752162 428.10535908 -91.33203125 432.33203125 C-91.33505249 433.30300751 -91.33807373 434.27398376 -91.34118652 435.27438354 C-91.1892944 448.95813961 -79.23031673 457.58029567 -70.11328125 466.72265625 C-68.30449156 468.89144934 -68.30449156 468.89144934 -66.92578125 468.77734375 C-66.91991501 468.18504471 -66.91404877 467.59274567 -66.90800476 466.98249817 C-66.84303976 460.70183457 -66.75838716 454.42163591 -66.66333008 448.14135742 C-66.63049492 445.81134248 -66.60234098 443.48125587 -66.5793457 441.15112305 C-66.27696956 411.2930871 -64.24171916 377.86224197 -41.87109375 355.44921875 C-38.86885744 352.72570464 -35.84983954 350.4405241 -32.55078125 348.08984375 C-24.91721187 342.59209171 -21.8179069 336.71244617 -20.25 327.53515625 C-19.74689153 323.25570349 -19.52797252 318.96504549 -19.3671875 314.66015625 C-18.86652454 311.39033978 -18.36706179 310.00611367 -15.92578125 307.77734375 C-10.81501124 306.04686782 -7.22317691 307.4867114 -2.48828125 309.52734375 C23.93444554 320.00673235 53.01763222 317.3646701 79.07421875 306.77734375 C97.14002692 298.45810026 111.56954031 285.42605341 119.07421875 266.77734375 C123.28694513 255.5158759 123.28694513 255.5158759 125.07421875 243.77734375 C128.0683203 242.7793099 130.64041794 242.60479736 133.77319336 242.48730469 C148.45680119 241.9300034 162.16659451 239.10126466 173.26171875 228.7890625 C177.68005529 223.88508983 180.55860489 218.21810758 182.88671875 212.08984375 C184.83210954 207.45834852 187.82665051 205.32006089 191.83203125 202.4375 C198.85033285 197.24102234 202.87901715 190.1891292 205.07421875 181.77734375 C205.80841359 175.15534933 205.79778894 168.22683222 204.07421875 161.77734375 C203.98455588 160.27944633 203.94407981 158.77791354 203.94921875 157.27734375 C203.94664062 156.52453125 203.9440625 155.77171875 203.94140625 154.99609375 C204.07421875 152.77734375 204.07421875 152.77734375 204.56542969 150.87402344 C207.93539634 136.98665606 204.19076222 121.64432727 197.32421875 109.46484375 C196.27507905 107.87918198 195.18993899 106.31688449 194.07421875 104.77734375 C193.43871094 103.88660156 192.80320312 102.99585937 192.1484375 102.078125 C185.55248135 93.43223732 177.28821888 86.10891018 167.38671875 81.46484375 C162.62805197 79.01604077 159.95497069 75.06807191 156.86547852 70.85717773 C146.33893501 56.51933435 132.47075678 46.14555341 115.07421875 41.77734375 C112.59892512 41.49153124 110.11919753 41.24197473 107.63671875 41.02734375 C99.23098451 40.12144078 93.7470829 36.39375697 86.84570312 31.890625 C64.98869371 18.15468744 35.56480736 14.42327296 10.5703125 19.38671875 C4.0943476 20.40017179 -1.73995953 18.7350555 -7.78515625 16.49609375 C-26.95385187 10.05988938 -52.12406132 15.32386831 -67.56640625 27.93359375 Z " fill="#000000" transform="translate(288.92578125,13.22265625)"/>
</svg>
