<svg width="648" height="1205" viewBox="0 0 648 1205" fill="none" xmlns="http://www.w3.org/2000/svg">
<path d="M324 261L333.567 563.331C333.637 565.555 336.021 566.931 337.983 565.88L604.592 423L347.55 582.451C345.658 583.624 345.658 586.376 347.55 587.549L604.592 747L337.983 604.12C336.021 603.069 333.637 604.445 333.567 606.669L324 909L314.433 606.669C314.363 604.445 311.979 603.069 310.017 604.12L43.4078 747L300.45 587.549C302.342 586.376 302.342 583.624 300.45 582.451L43.4078 423L310.017 565.88C311.979 566.931 314.363 565.555 314.433 563.331L324 261Z" fill="#D9D9D9"/>
<path d="M323.5 0L367 585H280L323.5 0Z" fill="#BE3144"/>
<path d="M323.5 1205L280 585H367L323.5 1205Z" fill="black"/>
<ellipse cx="323" cy="585" rx="32" ry="33" fill="white"/>
</svg>
