<svg width="1279" height="780" viewBox="0 0 1279 780" fill="none" xmlns="http://www.w3.org/2000/svg">
<path d="M934.483 97.3842C934.483 97.3842 926.226 112.976 923.801 113.648C921.376 114.319 915.188 172.65 948.593 165.127C981.998 157.604 969.761 139.316 969.761 139.316C969.761 139.316 970.34 119.173 971.62 117.822C972.899 116.472 935.921 96.6613 935.921 96.6613L934.483 97.3842Z" fill="#FFB9B9"/>
<path d="M1153.68 321.41H127.336C123.005 321.452 118.865 323.247 115.817 326.407C112.768 329.566 111.058 333.833 111.058 338.28C111.058 342.727 112.768 346.994 115.817 350.153C118.865 353.313 123.005 355.108 127.336 355.15H156.408V758.733C156.448 763.18 158.198 767.43 161.275 770.56C164.352 773.69 168.508 775.446 172.839 775.446C177.171 775.446 181.327 773.69 184.404 770.56C187.481 767.43 189.23 763.18 189.271 758.733L189.521 355.15H1089.22V758.733C1089.22 763.207 1090.95 767.498 1094.03 770.662C1097.11 773.826 1101.29 775.603 1105.65 775.603C1110.01 775.603 1114.19 773.826 1117.27 770.662C1120.35 767.498 1122.08 763.207 1122.08 758.733L1126.86 355.15H1153.68C1158.01 355.108 1162.15 353.313 1165.2 350.153C1168.25 346.994 1169.96 342.727 1169.96 338.28C1169.96 333.833 1168.25 329.566 1165.2 326.407C1162.15 323.247 1158.01 321.452 1153.68 321.41H1153.68Z" fill="#757780"/>
<path d="M305.24 246.239V317.68H130.907C121.717 317.947 112.797 314.47 106.094 308.009C99.3912 301.548 95.4499 292.628 95.1302 283.194C94.8106 273.761 98.1385 264.58 104.388 257.657C110.637 250.733 119.3 246.629 128.486 246.239C129.293 246.211 130.099 246.211 130.907 246.239H305.24Z" fill="#F2F2F2"/>
<path d="M309.522 317.131C309.522 317.86 309.24 318.558 308.738 319.074C308.236 319.589 307.555 319.878 306.846 319.879H127.798C118.073 319.879 108.747 315.913 101.871 308.853C94.9945 301.793 91.1315 292.218 91.1315 282.234C91.1315 272.25 94.9945 262.675 101.871 255.615C108.747 248.555 118.073 244.589 127.798 244.589H306.846C307.556 244.589 308.236 244.878 308.738 245.394C309.24 245.909 309.522 246.608 309.522 247.337C309.522 248.065 309.24 248.764 308.738 249.28C308.236 249.795 307.556 250.084 306.846 250.084H127.798C119.493 250.084 111.529 253.471 105.657 259.5C99.7845 265.529 96.4855 273.706 96.4855 282.232C96.4855 290.759 99.7845 298.936 105.657 304.964C111.529 310.993 119.493 314.38 127.798 314.38H306.846C307.197 314.381 307.546 314.452 307.87 314.59C308.195 314.729 308.49 314.931 308.739 315.187C308.987 315.442 309.184 315.745 309.319 316.079C309.453 316.412 309.522 316.77 309.522 317.131Z" fill="#6F7C12"/>
<path d="M305.24 262.727H117.9C117.763 262.721 117.633 262.661 117.537 262.56C117.442 262.459 117.388 262.324 117.387 262.183C117.385 262.042 117.437 261.905 117.53 261.802C117.624 261.699 117.753 261.637 117.89 261.628H305.24C305.377 261.636 305.506 261.697 305.6 261.799C305.695 261.901 305.748 262.037 305.748 262.178C305.748 262.319 305.695 262.454 305.6 262.556C305.506 262.659 305.377 262.72 305.24 262.727Z" fill="#CCCCCC"/>
<path d="M305.24 275.915H117.9C117.827 275.92 117.755 275.909 117.686 275.884C117.618 275.859 117.555 275.82 117.502 275.769C117.449 275.718 117.406 275.656 117.377 275.588C117.348 275.52 117.332 275.446 117.332 275.372C117.331 275.297 117.345 275.223 117.373 275.154C117.401 275.085 117.443 275.023 117.495 274.971C117.547 274.919 117.609 274.879 117.677 274.852C117.745 274.826 117.817 274.814 117.89 274.817H305.24C305.377 274.824 305.506 274.885 305.6 274.987C305.695 275.09 305.748 275.225 305.748 275.366C305.748 275.507 305.695 275.643 305.6 275.745C305.506 275.847 305.377 275.908 305.24 275.915Z" fill="#CCCCCC"/>
<path d="M305.24 289.104H117.9C117.763 289.098 117.633 289.038 117.537 288.937C117.442 288.836 117.388 288.7 117.387 288.559C117.385 288.418 117.437 288.282 117.53 288.179C117.624 288.076 117.753 288.014 117.89 288.005H305.24C305.377 288.012 305.506 288.073 305.6 288.176C305.695 288.278 305.748 288.413 305.748 288.554C305.748 288.695 305.695 288.831 305.6 288.933C305.506 289.035 305.377 289.096 305.24 289.104Z" fill="#CCCCCC"/>
<path d="M305.24 302.294H117.9C117.827 302.298 117.755 302.288 117.686 302.262C117.618 302.237 117.555 302.198 117.502 302.147C117.449 302.096 117.406 302.035 117.377 301.966C117.348 301.898 117.332 301.824 117.332 301.75C117.331 301.675 117.345 301.601 117.373 301.532C117.401 301.464 117.443 301.401 117.495 301.349C117.547 301.297 117.609 301.257 117.677 301.23C117.745 301.204 117.817 301.192 117.89 301.195H305.24C305.377 301.202 305.506 301.263 305.6 301.366C305.695 301.468 305.748 301.603 305.748 301.744C305.748 301.885 305.695 302.021 305.6 302.123C305.506 302.225 305.377 302.286 305.24 302.294Z" fill="#CCCCCC"/>
<path d="M272.377 170.973V242.414H98.0437C88.8534 242.681 79.9335 239.204 73.2308 232.743C66.528 226.283 62.5867 217.362 62.267 207.928C61.9474 198.495 65.2754 189.314 71.5246 182.391C77.7738 175.467 86.4369 171.363 95.623 170.973C96.4294 170.945 97.2363 170.945 98.0437 170.973H272.377Z" fill="#F2F2F2"/>
<path d="M276.659 241.865C276.658 242.594 276.376 243.292 275.874 243.808C275.373 244.323 274.692 244.612 273.983 244.613H94.9345C85.21 244.613 75.8838 240.647 69.0075 233.587C62.1312 226.527 58.2682 216.952 58.2682 206.968C58.2682 196.984 62.1312 187.409 69.0075 180.349C75.8838 173.289 85.21 169.323 94.9345 169.323H273.983C274.334 169.323 274.682 169.394 275.007 169.532C275.331 169.67 275.626 169.873 275.875 170.128C276.123 170.383 276.321 170.686 276.455 171.019C276.59 171.353 276.659 171.71 276.659 172.071C276.659 172.432 276.59 172.789 276.455 173.122C276.321 173.456 276.123 173.758 275.875 174.014C275.626 174.269 275.331 174.471 275.007 174.609C274.682 174.747 274.334 174.818 273.983 174.818H94.9345C86.63 174.818 78.6656 178.205 72.7934 184.234C66.9212 190.263 63.6222 198.44 63.6222 206.966C63.6222 215.493 66.9212 223.67 72.7934 229.698C78.6656 235.727 86.63 239.114 94.9345 239.114H273.983C274.692 239.115 275.373 239.404 275.874 239.92C276.376 240.435 276.658 241.133 276.659 241.862V241.865Z" fill="#090814"/>
<path d="M272.376 187.46H85.0368C84.9643 187.464 84.8916 187.454 84.8232 187.428C84.7548 187.403 84.6921 187.364 84.639 187.313C84.5858 187.262 84.5433 187.201 84.514 187.132C84.4847 187.064 84.4692 186.99 84.4685 186.916C84.4678 186.841 84.4819 186.767 84.51 186.698C84.538 186.629 84.5794 186.567 84.6316 186.515C84.6838 186.463 84.7457 186.423 84.8137 186.396C84.8816 186.37 84.954 186.358 85.0266 186.361H272.376C272.449 186.357 272.522 186.368 272.59 186.394C272.658 186.42 272.721 186.46 272.773 186.511C272.826 186.563 272.868 186.625 272.897 186.693C272.925 186.762 272.94 186.836 272.94 186.91C272.94 186.985 272.925 187.059 272.897 187.127C272.868 187.196 272.826 187.258 272.773 187.309C272.721 187.361 272.658 187.401 272.59 187.426C272.522 187.452 272.449 187.464 272.376 187.46Z" fill="#CCCCCC"/>
<path d="M272.376 200.648H85.0368C84.9643 200.653 84.8916 200.642 84.8232 200.617C84.7548 200.591 84.6921 200.552 84.639 200.501C84.5858 200.45 84.5433 200.389 84.514 200.321C84.4847 200.252 84.4692 200.179 84.4685 200.104C84.4678 200.03 84.4819 199.956 84.51 199.887C84.538 199.818 84.5794 199.756 84.6316 199.704C84.6838 199.652 84.7457 199.611 84.8137 199.585C84.8816 199.558 84.954 199.546 85.0266 199.549H272.376C272.449 199.545 272.522 199.557 272.59 199.583C272.658 199.608 272.721 199.648 272.773 199.7C272.826 199.751 272.868 199.813 272.897 199.882C272.925 199.95 272.94 200.024 272.94 200.099C272.94 200.173 272.925 200.247 272.897 200.316C272.868 200.384 272.826 200.446 272.773 200.498C272.721 200.549 272.658 200.589 272.59 200.615C272.522 200.641 272.449 200.652 272.376 200.648Z" fill="#CCCCCC"/>
<path d="M272.376 213.838H85.0368C84.9643 213.842 84.8916 213.832 84.8232 213.807C84.7548 213.781 84.6921 213.742 84.639 213.691C84.5858 213.64 84.5433 213.579 84.514 213.511C84.4847 213.442 84.4692 213.369 84.4685 213.294C84.4678 213.219 84.4819 213.145 84.51 213.077C84.538 213.008 84.5794 212.945 84.6316 212.894C84.6838 212.842 84.7457 212.801 84.8137 212.775C84.8816 212.748 84.954 212.736 85.0266 212.739H272.376C272.449 212.735 272.522 212.747 272.59 212.772C272.658 212.798 272.721 212.838 272.773 212.89C272.826 212.941 272.868 213.003 272.897 213.071C272.925 213.14 272.94 213.214 272.94 213.289C272.94 213.363 272.925 213.437 272.897 213.506C272.868 213.574 272.826 213.636 272.773 213.688C272.721 213.739 272.658 213.779 272.59 213.805C272.522 213.83 272.449 213.842 272.376 213.838Z" fill="#CCCCCC"/>
<path d="M272.376 227.026H85.0368C84.9643 227.031 84.8916 227.02 84.8232 226.995C84.7548 226.97 84.6921 226.931 84.639 226.88C84.5858 226.829 84.5433 226.767 84.514 226.699C84.4847 226.631 84.4692 226.557 84.4685 226.482C84.4678 226.408 84.4819 226.334 84.51 226.265C84.538 226.196 84.5794 226.134 84.6316 226.082C84.6838 226.03 84.7457 225.99 84.8137 225.963C84.8816 225.937 84.954 225.924 85.0266 225.928H272.376C272.449 225.924 272.522 225.935 272.59 225.961C272.658 225.987 272.721 226.027 272.773 226.078C272.826 226.129 272.868 226.191 272.897 226.26C272.925 226.328 272.94 226.402 272.94 226.477C272.94 226.552 272.925 226.625 272.897 226.694C272.868 226.763 272.826 226.825 272.773 226.876C272.721 226.927 272.658 226.967 272.59 226.993C272.522 227.019 272.449 227.03 272.376 227.026Z" fill="#CCCCCC"/>
<path d="M475.178 574.206V511.917C475.178 509.164 474.113 506.524 472.216 504.577C470.32 502.63 467.749 501.536 465.067 501.536H235.023C232.342 501.536 229.77 502.63 227.874 504.577C225.978 506.524 224.912 509.164 224.912 511.917V574.206H475.178Z" fill="#CCCCCC"/>
<path d="M475.178 597.567H224.912V678.024H475.178V597.567Z" fill="#CCCCCC"/>
<path d="M224.912 701.383V763.673C224.912 766.426 225.977 769.067 227.873 771.014C229.77 772.961 232.341 774.055 235.023 774.055H465.066C467.747 774.055 470.319 772.961 472.216 771.015C474.112 769.068 475.177 766.427 475.177 763.674V701.383H224.912Z" fill="#CCCCCC"/>
<path d="M348.782 548.256C352.971 548.256 356.366 544.769 356.366 540.469C356.366 536.168 352.971 532.682 348.782 532.682C344.593 532.682 341.197 536.168 341.197 540.469C341.197 544.769 344.593 548.256 348.782 548.256Z" fill="white"/>
<path d="M348.782 652.072C352.971 652.072 356.366 648.586 356.366 644.285C356.366 639.985 352.971 636.498 348.782 636.498C344.593 636.498 341.197 639.985 341.197 644.285C341.197 648.586 344.593 652.072 348.782 652.072Z" fill="white"/>
<path d="M349.188 753.691C353.377 753.691 356.773 750.205 356.773 745.904C356.773 741.604 353.377 738.117 349.188 738.117C345 738.117 341.604 741.604 341.604 745.904C341.604 750.205 345 753.691 349.188 753.691Z" fill="white"/>
<path d="M446.804 430.514V501.955H272.471C267.885 502.148 263.306 501.409 258.999 499.779C254.693 498.149 250.742 495.66 247.376 492.457C244.009 489.253 241.293 485.398 239.383 481.113C237.474 476.827 236.408 472.196 236.249 467.487C236.089 462.777 236.838 458.081 238.452 453.67C240.067 449.258 242.515 445.218 245.657 441.782C248.798 438.346 252.57 435.581 256.756 433.647C260.942 431.714 265.459 430.649 270.047 430.514C270.855 430.486 271.662 430.486 272.471 430.514H446.804Z" fill="#F2F2F2"/>
<path d="M451.088 501.405C451.087 502.133 450.805 502.832 450.303 503.347C449.801 503.862 449.121 504.152 448.411 504.152H269.366C259.642 504.158 250.313 500.198 243.433 493.142C236.552 486.087 232.684 476.514 232.678 466.53C232.672 456.546 236.53 446.968 243.402 439.904C250.274 432.84 259.598 428.868 269.323 428.863H448.411C449.121 428.863 449.802 429.152 450.304 429.667C450.806 430.183 451.088 430.882 451.088 431.61C451.088 432.339 450.806 433.038 450.304 433.553C449.802 434.068 449.121 434.358 448.411 434.358H269.366C261.062 434.358 253.097 437.745 247.225 443.774C241.353 449.803 238.054 457.98 238.054 466.506C238.054 475.032 241.353 483.209 247.225 489.238C253.097 495.267 261.062 498.654 269.366 498.654H448.414C449.124 498.655 449.804 498.946 450.305 499.461C450.807 499.977 451.088 500.676 451.088 501.405Z" fill="#CC2936"/>
<path d="M446.805 447.001H259.466C259.393 447.005 259.32 446.995 259.252 446.969C259.184 446.944 259.121 446.905 259.068 446.854C259.015 446.803 258.972 446.742 258.943 446.673C258.913 446.605 258.898 446.531 258.897 446.457C258.897 446.382 258.911 446.308 258.939 446.239C258.967 446.171 259.008 446.108 259.06 446.056C259.112 446.005 259.174 445.964 259.242 445.938C259.31 445.911 259.383 445.899 259.455 445.902H446.805C446.878 445.898 446.95 445.909 447.019 445.935C447.087 445.961 447.149 446.001 447.202 446.052C447.255 446.104 447.297 446.166 447.325 446.234C447.354 446.303 447.369 446.377 447.369 446.451C447.369 446.526 447.354 446.6 447.325 446.668C447.297 446.737 447.255 446.799 447.202 446.85C447.149 446.902 447.087 446.942 447.019 446.967C446.95 446.993 446.878 447.005 446.805 447.001Z" fill="#CCCCCC"/>
<path d="M446.805 460.191H259.466C259.393 460.195 259.32 460.184 259.252 460.159C259.184 460.134 259.121 460.095 259.068 460.044C259.015 459.993 258.972 459.932 258.943 459.863C258.913 459.795 258.898 459.721 258.897 459.647C258.897 459.572 258.911 459.498 258.939 459.429C258.967 459.36 259.008 459.298 259.06 459.246C259.112 459.194 259.174 459.154 259.242 459.127C259.31 459.101 259.383 459.089 259.455 459.092H446.805C446.878 459.088 446.95 459.099 447.019 459.125C447.087 459.151 447.149 459.191 447.202 459.242C447.255 459.294 447.297 459.355 447.325 459.424C447.354 459.493 447.369 459.567 447.369 459.641C447.369 459.716 447.354 459.79 447.325 459.858C447.297 459.927 447.255 459.989 447.202 460.04C447.149 460.092 447.087 460.131 447.019 460.157C446.95 460.183 446.878 460.194 446.805 460.191Z" fill="#CCCCCC"/>
<path d="M446.805 473.377H259.466C259.393 473.382 259.32 473.371 259.252 473.346C259.184 473.321 259.121 473.282 259.068 473.231C259.015 473.18 258.972 473.118 258.943 473.05C258.913 472.982 258.898 472.908 258.897 472.834C258.897 472.759 258.911 472.685 258.939 472.616C258.967 472.547 259.008 472.485 259.06 472.433C259.112 472.381 259.174 472.341 259.242 472.314C259.31 472.288 259.383 472.276 259.455 472.279H446.805C446.878 472.275 446.95 472.286 447.019 472.312C447.087 472.338 447.149 472.378 447.202 472.429C447.255 472.48 447.297 472.542 447.325 472.611C447.354 472.68 447.369 472.753 447.369 472.828C447.369 472.903 447.354 472.977 447.325 473.045C447.297 473.114 447.255 473.176 447.202 473.227C447.149 473.278 447.087 473.318 447.019 473.344C446.95 473.37 446.878 473.381 446.805 473.377Z" fill="#CCCCCC"/>
<path d="M446.805 486.567H259.466C259.393 486.572 259.32 486.561 259.252 486.536C259.184 486.511 259.121 486.472 259.068 486.421C259.015 486.37 258.972 486.308 258.943 486.24C258.913 486.172 258.898 486.098 258.897 486.024C258.897 485.949 258.911 485.875 258.939 485.806C258.967 485.737 259.008 485.675 259.06 485.623C259.112 485.571 259.174 485.531 259.242 485.504C259.31 485.478 259.383 485.466 259.455 485.469H446.805C446.878 485.465 446.95 485.476 447.019 485.502C447.087 485.528 447.149 485.568 447.202 485.619C447.255 485.67 447.297 485.732 447.325 485.801C447.354 485.87 447.369 485.943 447.369 486.018C447.369 486.093 447.354 486.167 447.325 486.235C447.297 486.304 447.255 486.366 447.202 486.417C447.149 486.468 447.087 486.508 447.019 486.534C446.95 486.56 446.878 486.571 446.805 486.567Z" fill="#CCCCCC"/>
<path d="M242.06 147.14H162.629C161.873 147.139 161.128 147.316 160.45 147.659L140.404 157.962C139.744 158.25 139.181 158.731 138.786 159.345C138.39 159.959 138.179 160.679 138.179 161.415C138.179 162.151 138.39 162.87 138.786 163.484C139.181 164.098 139.744 164.579 140.404 164.867L160.45 175.17C161.128 175.513 161.873 175.69 162.629 175.689H242.06C243.155 175.754 244.23 175.373 245.053 174.63C245.877 173.887 246.382 172.84 246.459 171.717V151.112C246.382 149.989 245.877 148.943 245.053 148.199C244.23 147.456 243.155 147.075 242.06 147.14Z" fill="#090814"/>
<path d="M246.459 151.112V171.717C246.382 172.84 245.877 173.887 245.053 174.63C244.23 175.373 243.155 175.754 242.06 175.689H226.232V147.14H242.06C243.155 147.075 244.23 147.456 245.053 148.199C245.877 148.943 246.382 149.989 246.459 151.112Z" fill="#E28413"/>
<path d="M350.773 166.617C357.717 169.122 365.172 169.75 372.421 168.438C379.669 167.127 386.467 163.922 392.159 159.131C406.655 146.639 411.202 126.058 414.899 106.999L425.838 50.6305L402.936 66.8216C386.466 78.4654 369.626 90.4805 358.222 107.345C346.819 124.21 341.841 147.231 351.004 165.48" fill="#6F7C12"/>
<path d="M352.723 234.865C350.4 217.531 348.021 199.979 349.647 182.452C351.091 166.891 355.716 151.693 365.129 139.232C370.125 132.63 376.206 126.974 383.096 122.517C384.892 121.352 386.546 124.276 384.757 125.434C372.836 133.17 363.615 144.592 358.424 158.055C352.691 173.026 351.77 189.347 352.761 205.25C353.358 214.868 354.624 224.423 355.9 233.965C356.001 234.396 355.938 234.851 355.725 235.237C355.511 235.623 355.163 235.911 354.75 236.043C354.329 236.16 353.881 236.101 353.502 235.88C353.123 235.659 352.844 235.293 352.726 234.862L352.723 234.865Z" fill="#F2F2F2"/>
<path d="M375.052 204.187C378.031 208.835 382.125 212.616 386.94 215.168C391.755 217.719 397.129 218.955 402.544 218.755C416.461 218.076 428.064 208.104 438.508 198.637L469.4 170.634L448.954 169.629C434.252 168.907 419.168 168.233 405.164 172.888C391.16 177.542 378.247 188.746 375.689 203.63" fill="#6F7C12"/>
<path d="M346.178 244.827C357.335 224.559 370.276 202.039 393.4 194.834C399.83 192.839 406.572 192.124 413.262 192.728C415.371 192.915 414.845 196.253 412.74 196.067C401.524 195.111 390.33 198.151 381.043 204.676C372.105 210.922 365.146 219.605 359.261 228.814C355.653 234.454 352.421 240.334 349.189 246.205C348.153 248.081 345.134 246.725 346.178 244.827Z" fill="#F2F2F2"/>
<path d="M328.302 266.162C328.678 261.69 330.242 257.409 332.823 253.787C335.405 250.164 338.905 247.338 342.943 245.616V233.899H362.085V245.986C365.924 247.792 369.228 250.611 371.66 254.155C374.091 257.7 375.564 261.843 375.928 266.162L380.43 319.88H323.797L328.302 266.162Z" fill="#F2F2F2"/>
<path d="M691.494 319.789L683.108 316.163L677.355 273.001H600.743L594.507 315.988L587.004 319.838C586.646 320.023 586.358 320.326 586.188 320.7C586.018 321.073 585.976 321.494 586.068 321.895C586.161 322.295 586.382 322.653 586.697 322.908C587.011 323.164 587.4 323.303 587.802 323.303H690.803C691.214 323.303 691.613 323.157 691.931 322.89C692.25 322.622 692.468 322.25 692.55 321.836C692.631 321.422 692.57 320.992 692.378 320.618C692.186 320.245 691.873 319.952 691.494 319.788V319.789Z" fill="#E6E6E6"/>
<path d="M827.637 278.744H451.301C449.327 278.739 447.434 277.931 446.04 276.496C444.645 275.061 443.862 273.117 443.862 271.089V216.605H835.077V271.089C835.077 273.117 834.293 275.061 832.899 276.496C831.504 277.931 829.612 278.739 827.637 278.744Z" fill="#CCCCCC"/>
<path d="M835.47 242.356H443.519V9.22709C443.523 6.78099 444.472 4.43635 446.157 2.70683C447.841 0.977307 450.125 0.00394149 452.508 0H826.481C828.864 0.00394149 831.148 0.977307 832.833 2.70683C834.517 4.43635 835.466 6.78099 835.47 9.22709V242.356Z" fill="#090814"/>
<path d="M812.06 225.436H466.929C465.092 225.434 463.33 224.683 462.031 223.35C460.732 222.016 460.001 220.207 459.999 218.321V24.0346C460.001 22.1483 460.732 20.3399 462.031 19.0061C463.33 17.6723 465.092 16.922 466.929 16.9201H812.06C813.897 16.922 815.659 17.6723 816.958 19.0061C818.257 20.3399 818.988 22.1483 818.99 24.0346V218.327C818.988 220.213 818.257 222.022 816.958 223.356C815.659 224.689 813.897 225.44 812.06 225.441V225.436Z" fill="white"/>
<path d="M721.158 293.994C723.387 291.881 726.04 290.296 728.93 289.35C731.82 288.403 734.877 288.119 737.886 288.517C740.894 288.915 743.781 289.986 746.343 291.653C748.905 293.321 751.08 295.545 752.714 298.168L799.398 289.647L811.36 317.51L745.271 328.583C740.797 331.101 735.58 331.849 730.605 330.685C725.63 329.521 721.244 326.526 718.275 322.266C715.306 318.006 713.96 312.776 714.493 307.567C715.026 302.357 717.399 297.528 721.165 293.994H721.158Z" fill="#FFB6B6"/>
<path d="M764.379 329.565L813.048 328.942L819.208 328.857L918.224 327.576C918.224 327.576 945.113 301.24 968.528 274.123L965.244 249.752C962.043 225.835 950.488 203.927 932.728 188.105C899.194 211.111 879.747 256.646 879.747 256.646L818.352 271.722L812.21 273.229L774.062 282.589L764.379 329.565Z" fill="#CC2936"/>
<path d="M1013.52 479.354H922.672C922.672 483.351 823.366 486.594 823.366 486.594C821.175 488.288 819.178 490.231 817.413 492.386C812.112 498.877 809.214 507.082 809.231 515.553V521.345C809.235 530.945 812.951 540.15 819.562 546.938C826.173 553.725 835.139 557.54 844.489 557.544H1013.52C1022.87 557.536 1031.83 553.72 1038.44 546.933C1045.05 540.146 1048.77 530.943 1048.78 521.345V515.553C1048.76 505.957 1045.04 496.757 1038.43 489.972C1031.82 483.186 1022.86 479.368 1013.52 479.354Z" fill="#E4E4E4"/>
<path d="M947.456 556.107H910.786V773.41H947.456V556.107Z" fill="#E4E4E4"/>
<path d="M806.42 772.087C806.42 776.154 861.986 773.66 930.53 773.66C999.073 773.66 1054.64 776.154 1054.64 772.087C1054.64 768.02 999.073 735.762 930.53 735.762C861.986 735.762 806.42 768.019 806.42 772.087Z" fill="#E4E4E4"/>
<path d="M781.788 747.258H754.496L741.514 639.186H781.79L781.788 747.258Z" fill="#FFB6B6"/>
<path d="M701.129 747.258H673.837L660.855 639.186H701.132L701.129 747.258Z" fill="#FFB6B6"/>
<path d="M945.591 125.074C971.797 125.074 993.041 103.263 993.041 76.3573C993.041 49.4521 971.797 27.6411 945.591 27.6411C919.385 27.6411 898.141 49.4521 898.141 76.3573C898.141 103.263 919.385 125.074 945.591 125.074Z" fill="#FFB6B6"/>
<path d="M1022.39 410.146C1022.39 410.146 1038.31 496.58 977.733 507.587C917.155 518.595 829.704 526.331 829.704 526.331L790.442 714.432L737.686 709.595C737.686 709.595 744.703 483.164 761.957 465.449C779.212 447.734 888.268 394.696 888.268 394.696L1022.39 410.146Z" fill="#090814"/>
<path d="M904.078 373.92L877.583 401.204C877.583 401.204 686.285 432.845 678.906 478.206C667.763 546.693 654.604 695.624 654.604 695.624L712.12 691.195L734.673 521.901L826.698 500.41L931.397 441.829L904.078 373.92Z" fill="#090814"/>
<path d="M991.252 47.2776C986.564 38.204 980.611 20.121 971.162 16.7665C965.911 14.979 960.485 13.792 954.98 13.2272L938.911 19.5724L947.657 12.5891C945.955 12.4897 944.253 12.4047 942.552 12.3341L931.709 16.616L937.256 12.1865C927.147 12.0807 916.714 13.1586 908.881 19.477C902.201 24.8635 895.588 45.2693 894.518 53.9164C893.375 62.1898 893.775 70.611 895.697 78.7308L898.443 81.4144C899.404 79.1533 900.126 76.7932 900.598 74.3744C901.583 69.8548 903.473 65.5954 906.15 61.8675C908.826 58.1396 912.23 55.025 916.143 52.7222L916.288 52.6358C920.893 49.9746 926.482 50.1013 931.762 50.2921L956.845 51.2194C962.88 51.4431 969.377 51.8352 974.082 55.7204C977.072 58.5872 979.423 62.0837 980.974 65.9703C983.312 70.8142 987.88 89.079 987.88 89.079C987.88 89.079 990.465 85.6306 991.703 88.1964C993.69 81.4991 994.898 74.584 995.302 67.5954C995.699 60.5762 994.302 53.5724 991.252 47.2776Z" fill="#090814"/>
<path d="M1157.21 97.7529C1154.19 97.9584 1151.24 98.8425 1148.58 100.343C1145.92 101.843 1143.62 103.924 1141.83 106.438C1140.04 108.951 1138.81 111.838 1138.22 114.893C1137.64 117.948 1137.71 121.098 1138.44 124.121L1100.28 153.019L1111.72 181.107L1165.04 139.52C1169.91 137.929 1174.04 134.56 1176.65 130.051C1179.26 125.542 1180.17 120.208 1179.2 115.058C1178.23 109.909 1175.46 105.302 1171.41 102.112C1167.35 98.922 1162.3 97.3699 1157.2 97.75L1157.21 97.7529Z" fill="#FFB6B6"/>
<path d="M1151.07 156.746L1055.41 265.818C1055.41 265.818 1009.67 250.782 974.291 234.482L958.397 184.365C954.707 172.738 953.131 160.513 953.751 148.301C1002.79 134.903 1059.84 184.758 1059.84 184.758L1131.44 127.174L1151.07 156.746Z" fill="#CC2936"/>
<path d="M927.868 418.201C910.802 412.148 893.162 405.891 874.12 403.541L873.302 403.44L873.527 402.627C893.231 331.597 888.313 286.161 878.658 217.907C876.605 203.185 879.244 188.175 886.181 175.12C893.118 162.064 903.981 151.661 917.149 145.464L917.266 145.411L971.629 141.864L971.753 141.856L1011.29 153.795C1016.98 155.526 1021.96 159.123 1025.46 164.035C1028.97 168.948 1030.81 174.906 1030.7 180.995C1030.27 203.442 1031.18 228.502 1032.15 255.033C1034.3 314.555 1036.53 376.103 1023.87 416.037L1023.8 416.245L1023.63 416.381C1011.99 426.113 997.414 431.372 982.404 431.25C964.663 431.251 946.557 424.828 927.868 418.201Z" fill="#CC2936"/>
<path d="M1276.76 779.124H1.84712C0.830624 779.124 0 777.963 0 776.528C0 775.094 0.82772 773.933 1.84712 773.933H1276.76C1277.78 773.933 1278.61 775.094 1278.61 776.528C1278.61 777.963 1277.78 779.124 1276.76 779.124Z" fill="#CCCCCC"/>
<path d="M693.939 733.551C696.622 730.641 699.097 727.536 701.345 724.261C705.642 718.148 709.455 749.475 709.455 749.475C709.455 749.475 713.591 762.214 712.557 768.584C711.523 774.953 687.742 774.953 683.606 773.891C679.47 772.83 658.79 773.891 658.79 773.891H627.764C600.881 761.153 627.764 752.659 627.764 752.659C636.041 751.598 663.954 725.059 663.954 725.059L670.158 713.382C674.293 712.32 678.435 728.245 678.435 728.245L693.939 733.551Z" fill="#090814"/>
<path d="M774.222 733.551C776.905 730.641 779.38 727.536 781.628 724.261C785.925 718.148 789.738 749.475 789.738 749.475C789.738 749.475 793.874 762.214 792.84 768.584C791.806 774.953 768.024 774.953 763.888 773.891C759.753 772.83 739.073 773.891 739.073 773.891H708.047C681.163 761.153 708.047 752.659 708.047 752.659C716.324 751.598 744.237 725.059 744.237 725.059L750.44 713.382C754.576 712.32 758.717 728.245 758.717 728.245L774.222 733.551Z" fill="#090814"/>
</svg>
