<?xml version="1.0" standalone="no"?>
<!DOCTYPE svg PUBLIC "-//W3C//DTD SVG 20010904//EN"
 "http://www.w3.org/TR/2001/REC-SVG-20010904/DTD/svg10.dtd">
<svg version="1.0" xmlns="http://www.w3.org/2000/svg"
 width="1920.000000pt" height="1920.000000pt" viewBox="0 0 1920.000000 1920.000000"
 preserveAspectRatio="xMidYMid meet">

<g transform="translate(0.000000,1920.000000) scale(0.100000,-0.100000)"
fill="#000000" stroke="none">
<path d="M9640 14430 c-240 -34 -455 -118 -635 -249 -38 -28 -72 -51 -75 -51
-3 0 -46 16 -95 36 -375 148 -816 101 -1154 -123 -94 -63 -236 -194 -301 -278
l-41 -53 -367 -4 c-358 -4 -369 -5 -464 -31 -299 -80 -547 -278 -682 -543
l-36 -71 -53 -7 c-75 -10 -220 -61 -307 -107 -260 -139 -444 -372 -524 -662
l-22 -78 -77 -42 c-352 -192 -624 -554 -713 -947 -124 -549 75 -1120 510
-1465 l82 -65 18 -78 c10 -42 38 -126 61 -185 176 -442 555 -769 1020 -883
151 -36 316 -45 778 -42 l419 3 -6 -40 c-30 -202 -30 -284 0 -427 79 -383 371
-687 749 -783 59 -15 149 -28 242 -34 252 -17 460 -71 679 -176 354 -171 634
-453 822 -830 148 -297 224 -592 266 -1038 12 -122 19 -159 41 -203 37 -75
103 -139 183 -177 l67 -32 250 0 250 0 67 32 c81 38 146 102 185 181 l28 57 3
328 c2 180 5 327 8 327 3 0 31 -20 62 -44 505 -396 1221 -359 1675 87 205 201
330 444 371 722 9 59 16 80 27 78 8 -1 57 -11 109 -23 117 -25 289 -28 406 -5
414 79 743 392 838 796 28 120 35 197 36 399 l1 145 91 75 c444 369 710 947
710 1540 0 535 -208 1041 -584 1420 l-84 85 33 73 c75 162 102 379 69 554 -58
309 -289 587 -578 697 -21 8 -28 19 -33 48 -17 103 -42 186 -83 268 -37 74
-62 106 -136 180 -125 125 -248 188 -419 215 l-75 12 -39 57 c-138 202 -357
381 -587 479 -169 72 -450 122 -594 107 l-64 -7 -71 69 c-176 171 -384 286
-625 347 -91 23 -145 30 -293 40 -26 2 -96 -1 -157 -6 l-111 -9 -80 63 c-159
125 -357 216 -561 258 -119 24 -328 34 -430 20z m370 -435 c164 -39 300 -112
436 -237 49 -45 103 -87 121 -94 42 -18 95 -18 185 2 96 21 290 21 386 0 40
-9 106 -29 148 -45 72 -28 207 -102 218 -120 3 -4 -20 -26 -51 -47 -87 -60
-212 -189 -277 -287 -133 -199 -199 -432 -191 -669 3 -74 7 -95 30 -133 14
-25 45 -58 67 -73 36 -23 52 -27 112 -27 84 0 132 24 174 87 24 37 27 52 33
177 9 152 29 234 85 342 84 159 244 293 411 342 173 51 430 19 623 -78 170
-86 335 -250 411 -410 56 -116 33 -251 -57 -337 -41 -39 -120 -78 -158 -78
-80 0 -162 -53 -200 -127 -24 -48 -21 -131 7 -184 64 -120 207 -140 417 -58
224 88 399 310 435 552 4 26 11 47 16 47 21 0 88 -74 117 -127 37 -71 47 -138
33 -220 -14 -77 -2 -136 41 -187 39 -47 71 -63 165 -81 250 -48 423 -252 423
-499 0 -77 -21 -179 -40 -200 -6 -5 -33 2 -68 17 -219 98 -521 114 -757 40
-110 -35 -235 -99 -333 -172 -74 -55 -87 -61 -130 -61 -61 0 -158 46 -201 96
-58 65 -74 110 -81 224 -7 125 -26 170 -89 215 -56 39 -148 47 -208 17 -47
-24 -100 -81 -110 -120 -5 -15 -8 -81 -7 -147 1 -107 4 -130 31 -208 17 -48
46 -112 64 -143 72 -119 199 -233 323 -290 31 -14 56 -28 56 -30 0 -3 -7 -21
-15 -41 -26 -63 -54 -184 -64 -284 -13 -136 5 -209 68 -262 69 -58 180 -62
253 -11 63 44 78 78 94 210 8 64 24 144 35 178 91 272 349 456 639 456 219 0
371 -75 599 -295 447 -431 606 -1053 419 -1645 -92 -292 -306 -597 -551 -784
-105 -80 -180 -101 -362 -101 -163 0 -226 14 -351 75 -143 70 -231 150 -341
309 -52 75 -106 103 -190 98 -76 -4 -135 -40 -171 -105 -26 -46 -31 -126 -13
-176 21 -53 115 -180 196 -261 103 -105 196 -172 320 -234 197 -98 321 -126
564 -126 l174 0 -6 -105 c-9 -174 -49 -290 -145 -414 -78 -101 -234 -198 -361
-225 -135 -28 -307 -8 -423 50 -55 28 -58 31 -58 67 0 51 -42 221 -79 317
-128 334 -411 607 -760 735 l-74 27 -47 109 c-168 390 -429 704 -780 939 -174
116 -521 267 -651 282 -155 18 -276 -149 -210 -292 29 -66 77 -99 191 -134
278 -87 500 -220 706 -426 176 -176 331 -426 406 -657 42 -131 83 -178 173
-202 125 -33 222 -69 286 -106 186 -109 315 -267 384 -471 39 -113 48 -207 42
-446 -4 -182 -8 -230 -25 -288 -49 -164 -120 -283 -240 -397 -297 -283 -723
-316 -1071 -83 -203 137 -334 365 -366 638 l-6 57 -210 0 -209 0 0 -730 0
-730 -118 0 -118 0 -12 128 c-61 625 -266 1168 -584 1547 -93 112 -251 264
-341 330 -39 29 -70 60 -74 74 -11 43 5 234 25 297 56 179 166 315 337 419 89
53 127 104 133 179 15 178 -157 284 -320 197 -298 -160 -521 -464 -578 -791
-7 -36 -13 -70 -15 -77 -3 -8 -23 -5 -67 13 -187 74 -433 127 -662 144 -206
14 -328 64 -445 181 -117 117 -175 258 -175 424 0 118 23 205 81 305 49 83
170 204 253 253 147 85 340 117 506 83 86 -18 115 -15 174 14 130 66 149 259
34 346 -76 58 -288 87 -481 65 -150 -17 -186 -15 -248 13 -69 31 -115 74 -150
137 -24 45 -29 68 -35 160 -5 95 -9 112 -35 155 -74 118 -238 128 -333 20 -44
-51 -55 -102 -49 -226 9 -180 71 -328 189 -455 l57 -62 -67 -66 -68 -67 -541
0 c-303 0 -585 5 -642 10 -247 26 -462 128 -636 304 -75 76 -175 210 -175 235
0 7 33 11 98 11 383 1 733 255 858 624 41 119 25 210 -47 270 -118 100 -285
48 -337 -104 -48 -137 -111 -224 -216 -292 -125 -81 -300 -102 -439 -54 -89
32 -246 137 -338 228 -226 222 -340 531 -309 838 25 240 121 448 284 618 207
215 458 323 751 323 404 0 759 -222 935 -586 63 -129 88 -225 104 -388 14
-146 26 -179 82 -225 123 -102 305 -33 336 125 5 30 5 89 -2 158 -9 94 -19
148 -57 313 -5 20 -2 22 30 22 115 0 233 -92 282 -219 46 -121 112 -167 225
-159 78 6 129 40 164 109 33 66 33 109 0 201 -39 109 -103 206 -195 292 -166
157 -388 222 -617 182 l-94 -16 -21 27 c-298 381 -704 583 -1172 583 -69 0
-125 3 -125 7 0 18 91 120 142 160 110 84 227 126 386 137 81 6 145 30 180 69
13 14 39 66 57 116 18 50 48 116 66 147 50 82 172 193 261 236 123 60 179 68
502 68 275 0 286 -1 286 -19 0 -37 61 -207 101 -281 59 -109 128 -197 228
-292 199 -189 456 -290 736 -291 132 0 208 11 335 50 69 20 93 33 126 67 85
84 85 206 1 290 -40 40 -98 66 -146 66 -11 0 -60 -12 -108 -26 -71 -21 -109
-26 -198 -27 -191 0 -348 65 -480 197 -107 109 -176 243 -192 378 -5 42 -2 51
30 95 77 105 196 201 320 258 136 62 176 70 357 70 161 0 167 -1 260 -33 52
-18 130 -54 174 -79 87 -51 148 -64 210 -43 21 7 79 48 129 92 150 130 284
199 464 239 107 23 279 20 393 -6z"/>
<path d="M9689 12986 c-61 -16 -96 -43 -161 -123 -130 -162 -199 -332 -214
-533 -25 -334 154 -680 441 -851 l74 -44 1 -98 c0 -54 5 -130 11 -168 6 -39 9
-72 7 -74 -2 -2 -46 3 -98 11 -350 52 -727 -38 -1009 -241 -163 -117 -329
-308 -416 -478 -67 -131 -62 -210 18 -295 38 -39 121 -67 170 -57 82 18 127
56 178 150 116 216 297 375 520 459 210 79 470 77 678 -6 129 -51 200 -99 269
-182 114 -138 282 -267 458 -351 115 -56 163 -67 227 -53 55 11 117 60 144
112 22 43 21 132 -1 176 -31 59 -55 78 -180 139 -214 105 -358 246 -456 446
-77 156 -93 229 -94 420 -1 136 3 172 22 242 49 179 123 303 272 458 85 87 98
107 109 152 21 87 -10 170 -82 220 -31 22 -54 28 -108 31 -90 5 -123 -14 -249
-144 -109 -113 -178 -209 -244 -341 -46 -92 -47 -93 -70 -78 -60 40 -138 170
-162 270 -40 170 8 330 144 488 66 76 77 159 32 247 -25 49 -60 76 -123 95
-58 17 -49 17 -108 1z"/>
</g>
</svg>
