<svg width="542" height="914" viewBox="0 0 542 914" fill="none" xmlns="http://www.w3.org/2000/svg">
<path opacity="0.5" d="M455.846 28.447C477.414 -5.67858 525.861 -8.35694 552.055 22.3615L778.621 288.062C787.636 298.634 792.771 311.966 793.179 325.853L799.999 558.325C800.376 571.197 796.677 583.893 789.337 594.474C692.041 734.747 619.374 807.633 479.114 903.271C465.866 912.305 449.428 915.614 433.706 912.462C274.774 880.602 181.844 847.115 54.224 704.314C49.3059 698.81 45.4152 692.318 42.8824 685.385C-5.74692 552.277 -14.4517 464.05 24.1604 311.578C30.3921 286.97 51.9246 269.095 77.2931 268.184C144.273 265.779 193.377 273.722 245.446 298.669C284.71 317.482 334.156 299.312 346.964 257.701C373.228 172.373 405.88 107.504 455.846 28.447Z" fill="#606C38"/>
</svg>
