<svg width="795" height="846" viewBox="0 0 795 846" fill="none" xmlns="http://www.w3.org/2000/svg">
<path opacity="0.5" d="M77.2952 120.666C60.7565 81.7924 90.5578 39.703 132.803 39.703H491.05C495.124 39.703 499.188 39.2948 503.181 38.4846L682.462 2.10457C711.31 -3.74942 740.224 11.8334 751.196 39.1484L769.765 85.374C776.142 101.248 775.56 119.071 768.16 134.496L731.86 210.167C719.518 235.893 727.519 266.213 746.502 287.516C865.186 420.703 733.088 575.317 698.086 706.797C693.492 724.052 683.462 739.722 668.361 749.249C551.117 823.218 530.628 843.261 342.016 845.89C336.21 845.971 330.263 845.256 324.744 843.455C194.343 800.888 104.85 633.494 13.883 512.307C-4.72554 487.516 -4.47496 452.195 18.4075 431.285C49.5314 402.844 79.6384 382.913 116.824 367.598C161.507 349.195 180.429 291.398 151.635 252.589C120.259 210.297 98.1032 169.574 77.2952 120.666Z" fill="#504B38"/>
</svg>
