<svg width="766" height="822" viewBox="0 0 766 822" fill="none" xmlns="http://www.w3.org/2000/svg">
<path d="M75.5566 77.1562C63.5843 38.6022 92.9809 0 133.351 0H482.534C496.427 0 509.904 4.74255 520.735 13.4432L702.054 159.092C712.093 167.157 719.353 178.21 722.643 190.66C766.248 355.71 774.56 458.296 756.326 627.077C754.603 643.019 746.456 657.673 733.856 667.592C606.491 767.854 520.713 816.838 329.247 821.291C321.868 821.463 314.403 820.211 307.485 817.64C174.647 768.276 101.865 717.654 10.8999 589.343C-3.7814 568.634 -3.41155 540.652 12.3556 520.757C53.9854 468.23 91.8896 436.019 144.658 412.586C184.448 394.916 202.706 345.502 179.353 308.757C131.467 233.408 103.292 166.472 75.5566 77.1562Z" fill="#F8F3D9"/>
</svg>
