<?xml version="1.0" standalone="no"?>
<!DOCTYPE svg PUBLIC "-//W3C//DTD SVG 20010904//EN"
 "http://www.w3.org/TR/2001/REC-SVG-20010904/DTD/svg10.dtd">
<svg version="1.0" xmlns="http://www.w3.org/2000/svg"
 width="512.000000pt" height="512.000000pt" viewBox="0 0 512.000000 512.000000"
 preserveAspectRatio="xMidYMid meet">
<metadata>
Created by potrace 1.16, written by Peter Selinger 2001-2019
</metadata>
<g transform="translate(0.000000,512.000000) scale(0.100000,-0.100000)"
fill="#000000" stroke="none">
<path d="M2635 4500 c-27 -5 -106 -14 -175 -19 -154 -13 -164 -15 -325 -53
-157 -37 -220 -64 -277 -117 -35 -32 -58 -43 -115 -56 -39 -9 -92 -29 -117
-46 -26 -16 -75 -41 -109 -55 -174 -72 -341 -194 -384 -279 -8 -16 -38 -50
-65 -74 -47 -42 -88 -108 -102 -163 -3 -14 -24 -40 -46 -58 -59 -47 -100 -105
-127 -176 -12 -36 -40 -88 -62 -117 -53 -71 -76 -120 -106 -224 -35 -119 -42
-245 -20 -343 9 -41 23 -110 30 -152 19 -106 57 -180 135 -258 103 -104 193
-147 378 -180 57 -11 109 -24 116 -29 7 -6 16 -38 19 -70 14 -130 87 -246 190
-298 57 -28 173 -52 257 -53 30 0 84 -8 120 -19 36 -10 88 -21 115 -25 63 -10
95 -38 95 -83 0 -18 22 -88 49 -155 90 -228 104 -280 96 -383 l-7 -91 44 -59
c24 -33 64 -89 87 -125 82 -122 73 -118 214 -112 67 2 128 9 135 14 18 15 15
38 -14 137 -15 49 -24 96 -21 104 3 9 24 21 46 27 51 13 81 51 81 100 0 21
-16 165 -35 321 -19 156 -37 304 -40 328 -4 38 -3 42 10 31 21 -18 32 -68 45
-205 14 -147 19 -164 89 -294 111 -205 188 -243 391 -191 180 46 287 93 363
160 21 18 59 37 94 46 109 28 195 95 272 210 48 71 101 206 101 257 0 63 20
95 93 150 40 30 82 65 93 78 39 43 85 123 100 176 10 36 37 80 80 135 36 45
75 100 86 122 98 192 101 405 10 585 -31 61 -41 95 -50 170 -13 107 -49 195
-105 258 -29 31 -38 52 -46 103 -17 106 -39 155 -97 220 -30 33 -54 67 -54 76
0 33 -52 114 -103 161 -30 27 -92 68 -138 90 -99 48 -112 61 -128 128 -42 174
-193 265 -566 341 -101 20 -165 27 -285 28 -85 2 -180 6 -210 9 -30 3 -77 1
-105 -3z m442 -116 l22 -28 41 19 40 18 140 -36 c219 -57 329 -117 369 -199
11 -24 21 -58 21 -75 0 -17 3 -39 6 -48 8 -20 99 -82 180 -123 34 -17 76 -43
94 -59 49 -41 90 -111 90 -152 0 -31 7 -42 49 -78 62 -54 93 -119 92 -194 0
-52 2 -59 45 -109 52 -61 76 -104 98 -179 22 -75 21 -116 -6 -143 l-22 -22 25
-15 c77 -50 119 -149 127 -297 5 -110 -7 -175 -53 -269 -50 -104 -95 -150
-183 -185 -40 -16 -94 -47 -119 -67 l-46 -38 -106 0 c-62 0 -122 6 -144 14
l-39 13 43 44 c24 24 40 44 35 44 -4 0 -40 -19 -79 -42 -72 -43 -72 -43 -165
-41 -52 1 -97 4 -100 8 -10 9 35 42 102 75 84 41 217 68 388 78 132 8 151 12
192 36 63 37 96 88 96 149 0 43 -5 54 -35 84 -26 26 -41 34 -62 31 -42 -5 -42
-34 1 -52 43 -18 54 -51 32 -98 -9 -18 -32 -44 -51 -57 -32 -22 -51 -25 -184
-32 -266 -15 -415 -61 -531 -164 -63 -56 -100 -75 -143 -75 -28 0 -40 7 -63
37 -29 38 -60 132 -46 143 4 4 34 12 67 19 126 26 195 79 195 149 0 35 16 42
105 42 123 0 186 38 206 125 24 102 62 165 100 165 83 0 158 -171 115 -262
-27 -56 -96 -77 -130 -39 -10 11 -15 25 -11 31 4 6 4 22 1 36 -5 19 -12 25
-29 22 -18 -2 -23 -10 -25 -46 -4 -54 17 -88 65 -109 46 -19 93 -10 133 24 65
55 78 116 50 248 -20 98 -19 132 7 172 8 12 12 27 8 33 -19 31 -68 -15 -79
-75 l-7 -35 -37 25 c-66 45 -118 29 -172 -52 l-15 -23 -52 49 c-61 57 -70 84
-56 168 14 80 43 140 99 202 46 51 55 78 28 88 -25 9 -101 -74 -139 -152 -39
-81 -59 -180 -50 -237 6 -32 21 -53 71 -103 58 -57 64 -66 64 -103 0 -72 -23
-83 -201 -97 l-76 -6 -25 33 c-50 67 -52 74 -24 131 16 32 31 86 37 137 19
145 33 181 99 262 34 40 76 105 96 143 60 120 56 212 -12 301 l-36 47 19 34
c31 59 73 103 97 103 33 0 69 -31 97 -84 21 -40 22 -49 12 -77 -17 -43 -6 -55
23 -28 33 31 31 76 -6 149 -32 64 -28 76 20 65 39 -8 80 -63 87 -112 4 -33 -3
-49 -46 -117 -56 -88 -70 -145 -53 -210 60 -227 67 -240 129 -268 37 -16 57
-19 112 -13 l66 6 31 -53 c69 -117 66 -161 -12 -218 -47 -33 -55 -63 -19 -68
28 -4 121 80 135 122 14 42 7 71 -37 168 -35 76 -35 78 -19 112 9 19 16 45 16
58 -1 35 -36 105 -59 118 -17 8 -21 20 -21 59 0 100 -44 187 -120 237 -30 20
-39 33 -44 67 -15 93 -75 167 -137 167 -34 0 -43 9 -72 66 -30 59 -66 92 -146
135 -31 17 -81 46 -111 65 -51 33 -60 35 -122 32 -54 -3 -72 -8 -93 -28 -32
-30 -36 -90 -5 -90 15 0 20 7 20 25 0 20 7 26 39 36 53 16 100 5 152 -35 24
-18 64 -43 89 -56 77 -38 140 -110 140 -158 0 -16 -9 -20 -52 -24 -54 -6 -61
-11 -129 -99 l-25 -33 -48 28 c-84 49 -105 116 -67 216 17 43 17 51 4 62 -26
21 -57 -32 -78 -134 -4 -19 -12 -28 -25 -28 -41 0 -72 -25 -101 -81 -16 -32
-33 -60 -39 -64 -19 -11 -11 -45 10 -45 19 0 56 43 92 109 24 44 56 41 90 -9
15 -21 56 -62 92 -90 175 -138 179 -260 13 -463 -73 -90 -91 -133 -112 -276
-22 -151 -39 -176 -164 -240 -55 -28 -102 -51 -104 -51 -9 0 -28 103 -20 110
86 71 142 107 147 94 8 -22 33 -17 40 9 10 39 7 55 -14 60 -15 4 -20 14 -20
39 0 43 -33 96 -65 104 -86 21 -187 -20 -393 -159 -119 -82 -142 -94 -142 -76
0 41 67 165 123 228 37 41 60 78 67 105 26 100 49 116 139 98 135 -28 171 -5
186 123 4 33 14 73 22 88 29 58 144 83 243 53 49 -14 70 -12 70 10 0 25 -62
47 -145 52 -68 4 -89 1 -133 -18 l-52 -22 -41 37 c-82 73 -173 93 -256 56 -42
-20 -64 -54 -45 -73 7 -7 21 -3 44 13 48 35 131 33 186 -4 69 -45 75 -62 61
-159 -8 -53 -19 -90 -30 -102 -17 -18 -22 -19 -87 -6 -119 22 -180 -6 -201
-91 -14 -55 -45 -113 -62 -117 -20 -4 -94 121 -114 192 -21 71 -15 155 14 221
18 41 134 177 266 311 52 54 70 65 139 88 44 14 97 38 118 52 49 34 81 99 78
162 -2 26 -2 52 -1 58 2 19 66 44 111 44 40 0 80 14 80 28 0 4 -42 7 -93 7
-73 0 -98 -4 -120 -19 -28 -19 -28 -19 -55 7 -15 14 -48 35 -73 45 -40 18 -47
25 -53 57 -11 56 -50 68 -195 60 -64 -4 -132 -11 -152 -16 -85 -21 -120 -82
-143 -250 -17 -121 -50 -206 -129 -328 l-35 -54 -26 85 c-14 47 -26 92 -26
101 0 8 14 41 32 73 19 36 40 100 53 164 39 182 82 244 182 266 40 9 121 11
258 9 l200 -4 22 -27z m-700 -2 c10 -6 10 -21 1 -69 l-11 -61 -30 21 c-24 18
-41 22 -97 20 -113 -3 -166 -38 -179 -119 l-6 -34 -130 -3 c-147 -3 -119 6
-389 -138 -167 -89 -229 -140 -253 -211 -14 -38 -28 -57 -60 -79 -55 -38 -106
-102 -139 -173 -27 -60 -27 -68 -8 -189 5 -27 0 -53 -17 -95 -14 -33 -24 -78
-24 -105 0 -41 5 -53 28 -73 25 -21 36 -23 120 -22 109 2 131 -7 247 -102 41
-34 88 -69 103 -77 26 -13 28 -18 23 -48 -10 -49 21 -114 46 -99 4 3 8 24 8
47 0 79 52 118 153 118 92 0 199 -44 256 -105 l24 -26 -29 -71 c-34 -87 -73
-143 -117 -169 -18 -11 -74 -34 -126 -51 -108 -36 -159 -75 -197 -151 -26 -51
-53 -65 -99 -54 -13 3 -31 19 -39 34 -25 47 -71 83 -113 89 -34 4 -45 1 -75
-26 -52 -46 -92 -57 -124 -37 -33 22 -48 63 -35 93 15 33 63 60 171 93 111 35
204 50 313 50 85 0 106 7 153 52 17 16 53 37 80 47 54 21 64 44 21 49 -29 4
-115 -34 -159 -69 -23 -19 -41 -22 -145 -25 -100 -2 -124 0 -158 16 -51 25
-116 89 -167 162 -47 70 -85 92 -145 85 -51 -5 -85 -33 -115 -92 -12 -22 -26
-43 -32 -47 -23 -16 -63 -7 -87 18 -35 37 -39 146 -9 227 12 32 27 56 33 54 6
-2 17 -22 24 -44 16 -46 35 -59 54 -37 10 12 8 25 -9 67 -12 29 -24 64 -27 79
-9 37 21 95 61 121 43 28 45 57 5 57 -16 0 -37 -7 -45 -16 -36 -36 -68 -85
-77 -119 -6 -20 -21 -52 -34 -71 -57 -84 -79 -250 -42 -320 35 -68 106 -101
157 -74 15 8 20 4 31 -22 17 -40 57 -88 75 -88 20 0 17 16 -12 65 -45 78 -28
165 38 189 45 16 72 0 117 -68 23 -36 68 -87 101 -115 l61 -50 -73 -22 c-172
-51 -238 -114 -217 -207 14 -65 92 -120 150 -107 17 4 50 22 76 42 57 43 80
39 125 -22 53 -71 109 -90 174 -59 33 16 35 16 53 -7 l19 -24 -124 -3 c-106
-2 -147 2 -273 27 -82 17 -178 42 -213 56 -158 64 -256 169 -273 290 -4 28
-19 79 -33 115 -23 57 -27 79 -27 180 0 95 4 127 24 185 33 96 65 160 115 225
23 30 48 75 55 100 18 65 53 114 115 160 45 33 58 49 73 93 13 38 34 68 80
114 35 33 71 81 82 105 35 80 118 140 365 262 97 48 178 82 220 91 56 11 75
21 115 58 53 49 110 74 251 107 52 12 109 26 125 30 40 11 58 11 72 2z m593
-77 c19 -22 6 -42 -33 -49 -78 -15 -111 -87 -63 -139 39 -42 151 -62 151 -27
0 8 -13 19 -30 24 -94 28 -113 48 -75 78 46 37 166 16 217 -39 28 -29 33 -42
33 -85 0 -69 -39 -108 -135 -137 -39 -11 -85 -31 -103 -43 -62 -44 -320 -326
-347 -381 -70 -144 -55 -269 56 -455 l31 -53 -41 -82 c-24 -47 -44 -105 -49
-137 l-7 -55 -86 -30 c-160 -58 -207 -102 -259 -247 -18 -47 -29 -61 -70 -88
-131 -84 -259 -113 -307 -68 -19 18 -23 32 -23 80 0 40 4 58 13 58 26 0 114
49 146 81 39 38 107 179 117 238 4 24 -1 76 -11 128 -20 102 -16 188 12 235
18 30 75 78 94 78 4 0 11 -21 14 -47 4 -27 20 -80 36 -120 35 -87 36 -97 4
-148 -45 -74 -20 -106 31 -40 31 41 43 116 26 163 -10 28 -8 32 29 62 22 17
46 48 55 68 20 47 30 197 15 235 -17 44 -31 22 -31 -48 0 -88 -17 -160 -47
-195 -29 -35 -49 -38 -58 -10 -3 10 -3 101 0 201 7 211 7 212 105 314 36 39
86 103 109 143 81 139 102 195 121 321 19 130 32 165 71 194 47 34 265 51 289
22z m-655 -80 c16 -15 25 -36 25 -54 0 -34 -19 -131 -26 -131 -2 0 -22 13 -45
29 -22 17 -62 37 -89 46 -64 21 -76 36 -60 74 23 58 151 81 195 36z m-130
-169 c68 -32 100 -67 86 -94 -18 -33 -13 -96 14 -179 32 -100 31 -115 -5 -157
-57 -64 -73 -117 -74 -245 l-1 -115 -57 -33 c-103 -60 -133 -123 -126 -264 2
-49 3 -89 1 -89 -2 0 -26 11 -53 25 -47 24 -50 28 -50 63 0 57 26 146 71 241
47 99 79 185 79 214 0 10 -7 34 -16 52 -28 60 -114 82 -192 49 -35 -14 -38
-14 -54 7 -11 13 -18 38 -18 64 0 58 44 98 127 115 32 7 67 17 77 22 32 17
101 10 163 -16 56 -23 73 -25 73 -6 0 19 -84 64 -138 75 l-57 12 -7 44 c-17
99 -106 157 -220 141 -35 -4 -59 -24 -46 -38 3 -3 34 -6 69 -8 75 -3 103 -16
129 -59 37 -60 14 -117 -45 -117 -80 0 -166 -65 -179 -134 -6 -30 -2 -49 18
-91 45 -91 36 -114 -71 -187 l-69 -47 -86 45 c-109 56 -138 89 -138 153 0 36
7 59 31 94 44 68 143 154 222 193 65 33 83 56 52 68 -42 16 -156 -53 -258
-157 -78 -78 -106 -131 -107 -200 0 -86 32 -124 166 -195 l89 -47 -3 -62 c-5
-78 17 -147 64 -201 l35 -41 -42 -22 c-39 -19 -45 -20 -73 -6 -17 8 -65 43
-106 77 -108 91 -161 113 -271 111 -88 -1 -89 -1 -95 26 -4 16 0 44 11 72 35
92 39 120 26 187 -12 60 -12 66 11 116 31 66 67 109 133 158 43 32 54 47 64
83 15 61 68 106 217 187 66 35 137 75 159 89 67 42 110 50 270 50 137 1 154
-1 200 -23z m1856 -523 c41 -35 69 -96 69 -154 0 -37 -7 -58 -34 -98 -37 -54
-32 -75 11 -44 14 10 32 23 40 28 20 14 63 -41 63 -80 -1 -51 -19 -63 -101
-71 -70 -6 -77 -5 -102 17 -19 17 -35 50 -54 114 -46 154 -42 194 24 283 29
39 42 40 84 5z m-2051 -63 c35 -35 26 -88 -36 -222 -51 -110 -83 -217 -84
-276 0 -22 -3 -23 -42 -17 -112 17 -193 117 -186 225 4 62 30 105 79 134 42
25 57 15 65 -43 8 -59 27 -92 44 -75 8 8 8 35 -1 101 -11 82 -11 93 7 129 31
63 112 86 154 44z m1184 -526 c9 -24 7 -63 -5 -85 -5 -11 -45 -45 -87 -77 -98
-72 -129 -105 -158 -169 -33 -74 -39 -137 -20 -212 22 -84 4 -112 -103 -166
-83 -41 -122 -53 -275 -81 -162 -30 -272 -34 -369 -14 -61 12 -74 12 -138 -4
-125 -33 -234 -10 -307 65 -62 63 -66 135 -9 169 52 32 64 27 69 -29 6 -65 29
-98 85 -123 62 -27 123 -19 236 34 l89 40 14 -21 c54 -76 224 -67 351 20 58
40 283 239 283 251 0 18 -39 6 -81 -24 -24 -17 -82 -65 -129 -106 -102 -90
-183 -132 -261 -139 -107 -10 -137 14 -96 76 13 20 30 54 37 76 35 110 79 152
207 198 109 40 177 77 308 171 197 141 340 201 359 150z m-114 -346 c12 -51
19 -64 37 -66 11 -2 67 20 123 48 56 28 103 50 105 48 2 -2 24 -31 50 -66 56
-77 59 -115 9 -144 -45 -26 -251 -78 -312 -78 -42 0 -58 5 -77 24 -30 30 -42
113 -25 177 12 44 54 119 68 119 4 0 14 -28 22 -62z m115 -374 c8 -28 26 -67
39 -87 29 -42 31 -42 -79 -26 -90 12 -190 41 -223 65 l-23 16 39 29 c22 16 42
35 45 42 3 8 32 12 96 12 l91 0 15 -51z m1105 -69 c0 -16 -62 -139 -85 -169
-63 -83 -212 -114 -290 -61 -32 23 -158 146 -152 151 1 0 43 -7 92 -17 160
-32 239 -22 304 37 48 42 131 80 131 59z m-1462 -26 c28 -10 31 -15 36 -67 26
-261 32 -283 119 -380 31 -34 72 -86 90 -115 61 -94 105 -117 225 -117 67 0
85 4 114 24 26 17 49 24 85 24 52 0 110 23 120 48 9 25 -2 25 -52 3 -59 -26
-99 -21 -164 21 -60 38 -70 38 -37 -1 32 -37 32 -44 4 -63 -31 -22 -149 -21
-196 1 -21 10 -45 34 -61 60 -14 24 -52 80 -83 124 -31 44 -64 102 -73 129
-20 60 -35 260 -20 260 25 0 44 -29 59 -89 23 -89 45 -135 106 -216 29 -38 62
-93 75 -121 24 -53 56 -84 88 -84 18 0 18 1 3 23 -9 12 -32 52 -51 89 -19 36
-61 96 -93 133 -68 76 -112 156 -112 203 0 34 2 35 37 26 15 -4 23 -17 28 -42
16 -86 61 -138 143 -167 26 -9 69 -25 97 -36 33 -13 52 -16 59 -9 17 17 -23
46 -94 69 -82 27 -138 64 -155 103 -20 48 -9 68 35 68 31 0 42 -6 64 -35 15
-20 37 -42 49 -50 39 -25 286 -94 373 -103 96 -11 118 -24 136 -83 24 -83 -45
-236 -151 -332 -60 -53 -183 -115 -315 -158 -184 -60 -195 -56 -246 98 -22 68
-55 143 -85 190 -73 119 -125 212 -158 281 -25 54 -30 77 -34 182 -3 66 -4
120 -1 120 3 0 19 -5 36 -11z m-88 -140 c8 -102 12 -116 43 -168 19 -31 48
-88 65 -128 16 -40 48 -101 69 -135 50 -79 75 -135 107 -242 20 -65 33 -90 58
-111 31 -26 37 -27 103 -22 143 12 385 111 480 199 151 138 222 336 157 441
-32 50 -64 65 -166 76 -71 8 -195 38 -335 80 -47 14 -31 28 66 61 84 28 108
32 169 28 92 -6 139 -33 256 -145 l86 -83 67 0 66 0 -20 -29 c-12 -16 -21 -45
-21 -63 0 -56 -37 -186 -69 -242 -66 -114 -147 -182 -259 -215 -42 -13 -81
-34 -113 -61 -89 -75 -307 -154 -430 -155 -91 0 -117 22 -197 165 -71 129 -77
147 -96 324 -17 148 -36 189 -112 234 -24 15 -46 36 -49 47 -3 11 -6 69 -8
130 l-2 110 35 11 c19 7 37 10 39 9 2 -2 7 -54 11 -116z m-1093 105 c12 -4 40
-34 64 -70 55 -85 136 -158 203 -183 30 -11 93 -27 140 -35 121 -21 122 -22
81 -86 -23 -37 -27 -39 -48 -28 -44 24 -246 66 -427 88 -177 21 -259 100 -283
272 l-6 37 122 4 c67 1 124 4 127 5 3 1 15 -1 27 -4z m947 -161 c6 -122 10
-153 27 -180 11 -18 23 -57 26 -88 l6 -55 -72 0 c-63 0 -75 -3 -96 -25 -14
-13 -25 -34 -25 -47 0 -40 100 -605 126 -713 14 -58 24 -120 22 -138 -3 -30
-5 -28 -42 43 -21 41 -56 105 -77 142 -29 50 -46 97 -64 179 -28 126 -83 315
-121 416 -16 42 -24 80 -21 98 3 17 44 98 92 182 80 140 88 158 96 230 11 86
13 89 49 96 71 13 66 22 74 -140z m-664 71 c25 -12 95 -32 155 -44 61 -11 120
-23 133 -26 32 -7 37 -29 14 -62 l-21 -28 -98 13 c-159 21 -199 37 -270 109
-34 35 -66 71 -72 82 -10 18 -8 18 52 -1 34 -11 82 -30 107 -43z m280 45 c30
-5 86 -9 124 -9 l69 0 -6 -56 c-6 -62 -14 -79 -112 -247 -89 -153 -91 -174
-36 -321 41 -109 104 -326 117 -401 l6 -40 -27 40 c-16 22 -41 84 -57 137 -15
54 -50 159 -78 234 -72 194 -70 210 39 391 63 104 77 139 67 171 -9 27 -42 38
-168 57 -118 18 -177 32 -143 35 11 0 36 7 55 15 19 7 49 11 65 9 17 -3 55 -9
85 -15z m439 -517 c13 -24 63 -460 59 -509 -3 -35 -6 -39 -40 -47 -21 -5 -40
-8 -42 -5 -9 10 -98 549 -93 563 10 24 103 22 116 -2z m-208 -749 c17 -34 33
-84 36 -110 l5 -48 -54 95 c-29 52 -75 126 -101 165 -26 38 -47 76 -47 84 0
27 129 -123 161 -186z"/>
<path d="M3173 4299 c-18 -12 -33 -25 -33 -30 0 -13 5 -11 42 11 43 26 65 25
130 -5 53 -25 88 -32 88 -17 0 11 -141 62 -170 62 -14 0 -40 -10 -57 -21z"/>
<path d="M3530 4201 c0 -14 50 -43 68 -39 13 3 8 10 -18 26 -38 24 -50 27 -50
13z"/>
<path d="M3555 3861 c-8 -14 33 -34 53 -26 15 6 15 8 -2 21 -23 16 -42 18 -51
5z"/>
<path d="M2952 3721 c2 -7 7 -12 11 -12 12 1 9 15 -3 20 -7 2 -11 -2 -8 -8z"/>
<path d="M3283 3396 c-34 -29 -58 -78 -49 -101 9 -24 22 -18 36 15 20 48 58
73 100 65 19 -4 45 -16 58 -28 36 -33 28 -61 -29 -107 -62 -49 -83 -74 -109
-132 -23 -50 -27 -145 -7 -173 20 -27 37 -10 37 38 0 95 33 158 120 228 65 54
80 90 56 140 -24 50 -61 72 -126 77 -49 4 -60 1 -87 -22z"/>
<path d="M2748 3392 c-22 -26 -37 -68 -29 -80 11 -18 29 1 45 46 16 45 8 62
-16 34z"/>
<path d="M3135 3164 c23 -17 56 -15 63 4 2 8 -9 12 -40 12 -40 -1 -42 -2 -23
-16z"/>
<path d="M3801 2997 c-17 -21 -26 -77 -12 -77 11 0 41 58 41 80 0 14 -15 13
-29 -3z"/>
<path d="M3494 2709 c-10 -17 18 -30 51 -23 36 8 45 12 45 25 0 13 -87 11 -96
-2z"/>
<path d="M4397 2653 c-12 -15 -17 -37 -17 -87 0 -37 -7 -83 -15 -103 -17 -39
-8 -60 20 -49 26 10 45 70 44 143 -1 37 -4 79 -8 91 -6 23 -6 24 -24 5z"/>
<path d="M3573 2390 c-24 -10 -43 -26 -43 -35 0 -8 3 -15 8 -15 21 1 137 49
140 59 6 18 -58 13 -105 -9z"/>
<path d="M3392 2282 c-26 -8 -31 -27 -7 -26 57 3 65 5 65 19 0 16 -19 18 -58
7z"/>
<path d="M4040 2255 c0 -11 81 -57 88 -51 9 10 -48 56 -70 56 -10 0 -18 -2
-18 -5z"/>
<path d="M3960 2186 c0 -9 7 -16 16 -16 17 0 14 22 -4 28 -7 2 -12 -3 -12 -12z"/>
<path d="M1198 2969 c-18 -10 -25 -39 -10 -39 5 0 16 8 25 18 28 31 19 42 -15
21z"/>
<path d="M1375 2871 c-8 -14 56 -144 73 -149 19 -6 14 28 -12 83 -25 55 -50
82 -61 66z"/>
<path d="M830 2547 c0 -18 34 -57 50 -57 18 0 11 16 -20 45 -23 22 -30 25 -30
12z"/>
<path d="M1397 2454 c-8 -8 1 -24 14 -24 5 0 9 7 9 15 0 15 -12 20 -23 9z"/>
<path d="M2714 4216 c-26 -12 -55 -46 -38 -46 17 0 84 42 79 50 -4 6 -7 10 -8
10 -1 -1 -16 -7 -33 -14z"/>
<path d="M2697 4021 c-62 -55 -106 -192 -107 -331 0 -44 0 -44 19 -25 13 13
25 51 36 114 18 109 44 173 86 217 25 26 28 33 15 43 -11 10 -21 6 -49 -18z"/>
<path d="M2390 3511 c0 -21 13 -41 26 -41 17 0 17 5 4 31 -11 20 -30 26 -30
10z"/>
<path d="M2140 2701 c0 -27 21 -81 31 -81 12 0 11 42 -1 74 -11 30 -30 35 -30
7z"/>
<path d="M2006 2468 c-40 -59 -43 -68 -21 -68 16 0 87 89 82 104 -8 24 -27 13
-61 -36z"/>
<path d="M2060 3976 c0 -27 15 -42 25 -26 8 13 -3 50 -16 50 -5 0 -9 -11 -9
-24z"/>
<path d="M2010 3650 c0 -23 41 -90 55 -90 20 0 19 6 -10 57 -24 41 -45 56 -45
33z"/>
<path d="M1570 3565 c0 -22 38 -95 50 -95 21 0 20 23 -2 62 -24 44 -48 60 -48
33z"/>
<path d="M1216 3444 c-4 -11 0 -15 16 -12 12 2 23 9 26 16 6 18 -35 15 -42 -4z"/>
<path d="M1340 3229 c0 -42 108 -109 178 -109 33 0 2 33 -52 55 -32 13 -71 35
-85 49 -33 31 -41 32 -41 5z"/>
<path d="M3970 3369 c0 -24 23 -21 28 4 2 10 -3 17 -12 17 -10 0 -16 -9 -16
-21z"/>
<path d="M2887 2753 c-4 -3 -7 -12 -7 -19 0 -17 27 -7 34 12 5 14 -15 20 -27
7z"/>
<path d="M2785 2688 c-27 -15 -65 -50 -65 -60 0 -15 24 -8 62 18 51 36 53 70
3 42z"/>
<path d="M2730 2315 c7 -8 21 -15 32 -15 17 0 18 3 8 15 -7 8 -21 15 -32 15
-17 0 -18 -3 -8 -15z"/>
<path d="M3226 2505 c7 -17 40 -29 55 -19 9 5 6 11 -6 21 -26 18 -56 17 -49
-2z"/>
<path d="M3070 2200 c0 -5 5 -10 10 -10 6 0 10 5 10 10 0 6 -4 10 -10 10 -5 0
-10 -4 -10 -10z"/>
<path d="M3952 1994 c-22 -10 -2 -24 34 -24 24 0 34 4 32 13 -5 13 -44 19 -66
11z"/>
<path d="M3477 1784 c-17 -17 -4 -25 36 -22 23 2 42 8 42 13 0 12 -67 19 -78
9z"/>
<path d="M3670 1755 c0 -9 5 -15 11 -13 6 2 11 8 11 13 0 5 -5 11 -11 13 -6 2
-11 -4 -11 -13z"/>
<path d="M3350 1710 c0 -28 43 -67 84 -74 37 -7 162 16 179 33 22 22 -9 28
-91 18 -70 -9 -87 -8 -117 6 -19 9 -35 21 -35 27 0 5 -4 10 -10 10 -5 0 -10
-9 -10 -20z"/>
<path d="M3234 1386 c-10 -8 -16 -17 -13 -21 9 -8 99 15 99 26 0 14 -64 10
-86 -5z"/>
<path d="M3506 2001 c-4 -5 10 -14 31 -20 38 -11 53 -7 37 8 -15 15 -61 23
-68 12z"/>
<path d="M3862 1655 c-14 -54 -51 -136 -78 -172 -13 -18 -14 -23 -3 -23 38 0
105 150 97 216 -3 25 -5 23 -16 -21z"/>
<path d="M1880 1950 c0 -20 101 -57 121 -44 6 3 -15 17 -48 30 -65 27 -73 28
-73 14z"/>
</g>
</svg>