<svg width="895" height="824" viewBox="0 0 895 824" fill="none" xmlns="http://www.w3.org/2000/svg">
<mask id="path-1-inside-1_96_5" fill="white">
<path d="M440.302 11.5591C445.668 13.1408 449.739 11.3693 454.58 8.97711C467.993 2.6959 482.231 3.1748 496.767 3.16461C497.634 3.16394 498.501 3.16326 499.394 3.16257C513.858 3.18039 527.923 3.99214 542.205 6.41461C543.221 6.5809 544.238 6.74719 545.286 6.91852C580.927 12.8643 615.281 23.6361 648.205 38.4146C649.809 39.1344 649.809 39.1344 651.446 39.8687C681.176 53.3498 707.499 70.9784 731.205 93.4146C731.728 93.9041 732.252 94.3937 732.791 94.898C746.663 107.939 760.36 123.507 766.017 142.083C767.722 145.431 770.45 146.992 773.517 148.977C780.561 153.765 786.716 159.165 792.824 165.085C794 166.218 795.202 167.325 796.408 168.426C814.237 185.132 827.575 209.47 829.017 233.915C829.646 243.259 832.271 247.071 839.205 253.415C841.415 255.867 843.503 258.411 845.58 260.977C846.132 261.658 846.684 262.339 847.253 263.041C871.029 292.822 883.825 329.577 889.799 366.921C890.202 369.398 890.653 371.864 891.107 374.333C898.036 414.682 894.442 462.516 871.283 497.301C855.444 519.411 833.783 534.327 806.775 539.118C803.899 539.45 801.097 539.465 798.205 539.415C798.239 540.54 798.274 541.665 798.31 542.825C798.996 574.253 786.272 601.473 764.92 624.102C733.919 655.841 687.631 670.675 644.095 671.618C624.052 671.82 604.572 671.038 585.205 665.415C586.655 672.887 588.275 680.313 589.962 687.735C590.227 688.9 590.491 690.066 590.763 691.266C591.617 695.024 592.473 698.782 593.33 702.54C593.621 703.818 593.912 705.097 594.212 706.414C597.602 721.28 601.025 736.133 604.767 750.915C605.082 752.161 605.396 753.407 605.721 754.692C606.774 758.844 607.832 762.995 608.919 767.139C612.404 780.441 614.763 792.667 608.205 805.415C603.144 813.713 596.468 819.258 587.205 822.29C575.261 825.07 562.886 824.884 552.205 818.415C539.465 809.575 534.823 796.529 530.205 782.415C524.768 766.033 518.791 749.89 512.58 733.79C512.218 732.85 511.857 731.911 511.485 730.943C502.74 708.141 502.74 708.141 491.892 686.29C491.423 685.448 490.953 684.606 490.469 683.738C482.674 669.988 473.214 658.709 462.205 647.415C461.304 646.474 460.402 645.533 459.474 644.563C453.749 638.683 447.601 633.542 441.205 628.415C423.726 614.197 408.799 599.129 399.205 578.415C399.205 577.755 399.205 577.095 399.205 576.415C398.107 576.555 397.01 576.695 395.879 576.839C382.765 578.418 369.78 578.816 356.58 578.79C354.995 578.788 354.995 578.788 353.377 578.787C337.651 578.744 322.533 578.26 307.205 574.415C306.212 574.173 305.22 573.932 304.198 573.683C279.438 567.496 256.646 557.123 237.205 540.415C236.461 539.815 235.717 539.216 234.951 538.598C217.109 523.735 206.949 502.696 204.466 479.876C204.251 477.03 204.184 474.264 204.205 471.415C203.378 471.436 202.551 471.457 201.699 471.478C145.531 472.698 83.1381 463.635 40.2046 424.415C39.3951 423.688 38.5855 422.961 37.7515 422.211C21.4273 406.801 9.85546 384.947 8.20458 362.415C8.20881 360.364 8.28433 358.326 8.37108 356.277C8.66264 348.682 7.92202 342.038 5.82958 334.727C5.60021 333.923 5.37084 333.119 5.13451 332.29C4.90885 331.5 4.68318 330.709 4.45067 329.895C-5.80729 293.829 2.60817 251.926 20.0662 219.521C23.905 212.665 28.1469 206.445 33.2046 200.415C33.643 199.884 34.0815 199.354 34.5332 198.808C42.6611 188.977 42.6611 188.977 46.3999 185.192C51.5406 179.961 54.2004 174.476 57.1372 167.861C60.2884 160.901 64.2606 155.271 69.2046 149.415C69.8904 148.601 70.5761 147.788 71.2827 146.95C73.5333 144.378 75.8482 141.89 78.2046 139.415C78.7112 138.881 79.2178 138.347 79.7397 137.797C91.7054 125.269 104.782 114.983 119.205 105.415C120.206 104.737 121.208 104.059 122.24 103.36C132.718 96.5511 144.662 90.6546 156.955 88.1021C161.116 86.9723 162.382 85.1335 164.58 81.4771C165.409 80.0114 165.409 80.0114 166.255 78.5162C184.58 49.3585 228.763 32.6281 260.205 24.4146C261.022 24.2 261.839 23.9854 262.681 23.7642C274.506 20.8081 285.647 20.3455 297.746 20.6672C311.007 21.0076 320.412 20.7305 331.373 12.6163C342.259 5.47417 356.543 3.13643 369.205 1.41461C370.375 1.23157 371.546 1.04852 372.751 0.859925C395.144 -2.02782 419.802 2.56219 440.302 11.5591ZM328.22 44.0045C325.055 46.5323 323.651 47.4298 319.517 47.2896C317.79 46.8333 316.063 46.3734 314.347 45.8748C280.301 38.5621 238.724 54.9692 210.58 72.9771C208.436 74.4288 206.31 75.908 204.205 77.4146C203.351 78.0237 203.351 78.0237 202.479 78.6451C190.683 86.74 190.683 86.74 183.205 98.4146C182.409 108.284 184.864 118.643 191.205 126.415C191.586 126.993 191.968 127.572 192.361 128.169C194.309 129.788 194.309 129.788 197.576 128.903C198.936 128.528 200.292 128.136 201.642 127.727C213.311 124.355 224.49 123.07 236.642 123.102C237.862 123.086 239.082 123.07 240.339 123.053C262.9 123.041 284.217 131.456 300.205 147.415C300.78 147.978 301.354 148.541 301.947 149.122C312.101 159.934 314.816 173.34 314.517 187.61C313.937 199.919 308.418 210.471 301.443 220.376C300.952 221.074 300.461 221.772 299.955 222.492C298.979 223.864 297.99 225.229 296.988 226.582C293.701 231.157 292.355 234.903 291.205 240.415C290.282 242.83 289.258 245.171 288.205 247.532C285.271 255.988 284.787 264.459 284.767 273.352C284.763 274.533 284.759 275.715 284.755 276.932C284.873 285.996 286.445 293.868 289.072 302.489C290.476 307.12 291.4 311.634 290.205 316.415C288.267 319.54 288.267 319.54 285.205 321.415C282.044 322.1 279.364 322.111 276.205 321.415C266.894 315 265.171 300.819 263.205 290.415C260.797 275.645 262.13 261.002 264.841 246.385C265.33 243.734 265.769 241.075 266.205 238.415C254.789 228.598 242.283 224.791 227.248 225.102C214.276 226.434 202.43 233.452 194.205 243.415C185.002 256.409 181.91 269.691 183.205 285.415C184.753 293.6 188.682 300.222 195.205 305.415C198.8 307.557 202.511 309.46 206.301 311.233C210.62 313.302 213.325 314.758 215.205 319.415C216.077 324.004 215.815 327.438 213.33 331.415C210.895 333.706 209.894 334.335 206.587 334.715C202.125 334.319 198.981 332.718 195.08 330.602C194.334 330.2 193.588 329.797 192.82 329.383C178.468 321.317 167.197 308.593 162.669 292.514C157.689 272.433 161.853 252.983 172.205 235.415C174.666 231.872 177.322 228.621 180.205 225.415C180.723 224.804 181.241 224.193 181.775 223.563C193.364 210.81 210.46 204.054 227.396 203.122C244.284 202.597 257.493 206.282 272.205 214.415C273.534 215.09 274.865 215.762 276.205 216.415C285.099 205.445 292.751 193.982 292.537 179.352C291.618 171.229 286.732 164.985 280.919 159.52C264.983 147.161 244.708 145.007 225.205 146.415C218.375 147.397 211.664 149.152 205.185 151.516C198.535 153.521 190.816 153.714 184.251 151.352C172.641 144.799 165.956 133.3 162.099 120.844C161.394 118.043 160.75 115.251 160.205 112.415C155.19 112.972 151.144 114.632 146.705 116.915C146.009 117.268 145.313 117.622 144.597 117.987C130.574 125.261 118.348 134.481 106.708 145.137C105.049 146.647 103.369 148.134 101.669 149.598C91.3874 158.514 81.5846 169.739 76.2046 182.415C76.4973 190.026 79.2979 195.95 84.8296 201.102C95.6299 209.928 107.564 212.7 121.205 211.415C127.85 209.428 131.093 204.276 134.662 198.622C136.205 196.415 136.205 196.415 139.205 194.415C142.596 193.869 145.813 193.868 149.205 194.415C152.029 196.605 153.62 198.245 155.205 201.415C155.606 207.332 154.99 211.042 152.205 216.415C151.689 217.425 151.173 218.436 150.642 219.477C144.317 227.1 132.919 231.958 123.205 233.415C103.29 234.86 83.4529 230.552 67.9546 217.29C64.8095 214.258 62.51 211.103 60.2046 207.415C59.5446 207.415 58.8846 207.415 58.2046 207.415C56.8245 208.794 56.8245 208.794 55.4468 210.641C54.9074 211.336 54.368 212.031 53.8122 212.747C53.2405 213.504 52.6687 214.26 52.0796 215.04C51.4943 215.813 50.909 216.586 50.3059 217.383C29.957 244.704 19.9576 280.289 24.81 314.27C25.7579 319.86 26.9396 325.195 29.2046 330.415C30.4421 330.476 31.6796 330.538 32.9546 330.602C36.3794 331.02 37.0421 331.256 39.6421 333.79C42.2095 338.103 42.711 341.435 42.2046 346.415C39.3281 350.77 37.0421 352.683 32.2046 354.415C32.8872 374.961 40.1123 390.539 54.2046 405.415C57.7194 408.638 61.3855 411.561 65.2046 414.415C66.3183 415.285 66.3183 415.285 67.4546 416.172C89.9868 432.993 116.9 439.969 144.205 444.415C145.273 444.593 146.341 444.771 147.441 444.955C160.547 447.072 173.413 447.601 186.663 447.6C189.359 447.602 192.055 447.62 194.751 447.639C196.468 447.642 198.184 447.644 199.9 447.645C201.108 447.656 201.108 447.656 202.34 447.667C206.741 447.827 206.741 447.827 210.205 445.415C210.659 443.721 211.043 442.008 211.392 440.29C215.724 422.23 225.673 404.024 238.205 390.415C238.916 389.64 238.916 389.64 239.642 388.849C256.452 370.744 277.497 358.367 301.205 351.415C302.288 351.096 303.371 350.777 304.487 350.449C313.06 348.037 321.535 346.449 330.355 345.263C352.965 342.184 371.293 337.092 390.955 325.415C397.941 321.349 405.219 318.443 412.759 315.567C416.414 314.172 419.952 312.609 423.499 310.96C433.161 306.527 443.069 303.635 453.332 300.924C456.205 300.165 459.072 299.385 461.939 298.602C475.282 294.995 488.605 291.815 502.392 290.477C513.913 289.161 525.092 286.789 532.775 277.52C535.89 273.125 538.124 268.477 540.392 263.602C546.152 251.595 555.034 243.002 567.205 237.415C568.13 236.983 569.056 236.551 570.009 236.106C586.312 229.857 607.202 232.011 623.072 238.606C624.568 239.292 626.05 240.009 627.505 240.778C629.411 241.695 629.411 241.695 632.205 240.415C633.965 237.257 635.05 233.834 636.205 230.415C636.551 229.409 636.551 229.409 636.904 228.383C639.709 218.357 640.041 204.91 635.482 195.45C633.766 192.716 631.785 190.363 629.603 187.993C626.447 184.431 625.205 181.597 625.205 176.852C626.391 172.775 627.967 171.099 631.205 168.415C634.808 166.613 638.416 167.376 642.205 168.415C651.667 173.476 656.119 185.152 659.142 194.915C663.623 216.078 658.627 236.134 649.658 255.29C647.269 260.426 647.245 262.261 649.017 267.602C649.576 269.356 649.576 269.356 650.146 271.145C650.734 272.961 651.324 274.777 651.919 276.59C657.493 295.589 649.341 316.326 640.428 332.954C637.03 339.023 632.888 344.276 628.205 349.415C627.234 350.507 627.234 350.507 626.244 351.622C613.555 365.165 596.849 370.069 579.205 373.415C578.099 373.631 576.993 373.848 575.853 374.071C568.267 375.351 560.758 375.617 553.08 375.852C520.674 376.865 478.868 379.443 453.205 402.415C450.584 405.965 449.286 409.33 448.955 413.727C450.243 417.527 451.783 419.69 454.205 422.852C457.84 427.61 459.516 430.398 459.205 436.415C457.63 440.036 456.516 441.207 453.205 443.415C448.628 444.133 445.88 443.562 442.142 440.977C436.687 436.518 433.243 430.691 430.205 424.415C426.439 425.827 422.919 427.546 419.365 429.415C413.467 432.145 408.666 432.65 402.283 432.469C400.516 432.444 398.749 432.419 396.982 432.395C394.238 432.346 391.494 432.291 388.75 432.223C358.029 431.512 334.512 442.43 310.205 460.415C306.476 462.9 303.521 463.042 299.205 462.415C295.767 460.977 295.767 460.977 293.205 458.415C292.055 455.324 291.559 452.659 292.205 449.415C295.78 444.163 300.227 441.015 305.517 437.602C306.31 437.084 307.102 436.567 307.919 436.033C332.321 420.261 360.601 406.995 390.392 410.915C403.029 412.572 412.711 410.799 423.08 403.04C426.749 399.95 429.931 396.565 433.125 393.004C457.612 365.773 495.752 356.649 531.205 354.415C534.372 354.305 537.538 354.237 540.706 354.175C551.941 353.936 563.006 353.191 574.142 351.665C575.259 351.52 576.376 351.375 577.527 351.226C594.831 348.667 607.658 341.383 618.205 327.415C627.834 312.864 633.044 295.666 629.58 278.278C626.828 269.47 621.372 262.787 613.205 258.477C601.605 253.372 589.952 252.626 577.927 257.157C568.037 261.726 562.855 269.077 558.039 278.539C551.427 291.517 543.579 301.976 529.518 307.463C520.328 310.36 511.041 312.035 501.561 313.677C466.047 319.875 432.142 328.862 400.525 346.594C381.359 357.292 364.131 363.066 342.419 366.27C322.442 369.257 303.381 373.376 285.205 382.415C283.445 383.283 283.445 383.283 281.65 384.169C274.928 387.638 268.874 391.4 263.205 396.415C262.355 397.158 261.506 397.902 260.63 398.669C245.024 413.251 228.344 438.613 227.08 460.582C226.39 482.539 230.714 499.895 246.205 516.415C248.728 518.969 251.366 521.218 254.205 523.415C255.211 524.196 256.218 524.977 257.255 525.782C274.047 538.453 293.481 546.245 313.83 551.227C315.008 551.519 315.008 551.519 316.209 551.818C330.764 555.164 345.458 555.794 360.33 555.727C361.181 555.725 362.032 555.723 362.909 555.722C376.525 555.673 389.809 555.037 403.205 552.415C404.108 552.238 405.012 552.061 405.943 551.878C421.983 548.635 437.82 544.348 453.279 538.985C453.905 538.769 454.531 538.554 455.177 538.331C458.234 537.278 461.281 536.211 464.32 535.105C485.774 527.637 508.694 525.372 531.142 522.79C555.07 519.995 578.052 516.775 601.329 510.522C623.079 504.712 623.079 504.712 629.205 506.415C631.647 509.07 632.609 510.802 632.517 514.415C632.513 515.075 632.509 515.735 632.505 516.415C632.137 518.866 631.54 520.31 630.205 522.415C622.287 527.746 613.05 530.209 603.892 532.477C603.227 532.645 602.562 532.813 601.877 532.985C577.322 539.152 552.204 542.055 527.098 544.96C522.922 545.448 518.748 545.946 514.576 546.458C513.295 546.614 512.014 546.77 510.695 546.931C506.449 547.519 502.36 548.376 498.205 549.415C498.488 565.881 510.812 580.366 522.021 591.411C525.631 594.723 529.537 597.568 533.517 600.415C534.769 601.325 534.769 601.325 536.046 602.253C539.541 604.791 543.05 607.307 546.568 609.813C561.14 620.243 561.14 620.243 565.576 626.821C572.815 637.453 579.771 640.73 592.205 643.415C593.097 643.612 593.989 643.81 594.909 644.014C609.06 647.077 622.759 648.602 637.234 648.6C639.371 648.602 641.507 648.62 643.644 648.639C656.646 648.695 669.196 647.436 681.705 643.665C682.598 643.4 683.492 643.135 684.413 642.863C717.228 632.935 748.408 614.32 765.205 583.415C771.447 570.669 775.268 556.906 775.224 542.692C775.221 541.518 775.218 540.343 775.216 539.133C775.212 538.236 775.208 537.339 775.205 536.415C774.314 536.113 773.423 535.811 772.505 535.5C769.121 534.351 765.739 533.199 762.357 532.044C760.908 531.551 759.458 531.058 758.008 530.567C749.104 527.551 740.331 524.337 731.623 520.794C727.766 519.238 723.879 517.786 719.978 516.348C711.65 513.268 703.87 509.928 696.205 505.415C684.005 498.414 669.289 493.98 655.107 494.493C653.976 494.519 652.845 494.544 651.679 494.571C649.317 494.633 646.955 494.712 644.593 494.805C636.173 494.959 636.173 494.959 633.318 493.354C630.98 491.067 629.239 488.693 629.15 485.391C629.637 479.012 629.637 479.012 632.58 475.915C636.928 473.43 640.641 473.23 645.521 473.176C646.246 473.167 646.97 473.157 647.717 473.147C650.067 473.122 652.417 473.109 654.767 473.102C655.563 473.099 656.358 473.097 657.178 473.094C668.98 473.09 679.917 473.678 691.205 477.415C692.126 477.692 693.048 477.969 693.998 478.254C700.67 480.556 706.38 484.582 712.201 488.489C716.81 491.444 720.824 491.958 726.205 491.415C731.673 489.555 735.132 486.2 738.205 481.415C743.077 471.196 742.289 458.928 739.236 448.286C734.726 435.73 726.199 424.58 714.205 418.415C711.089 417.112 707.963 415.87 704.808 414.668C697.289 411.766 690.78 408.279 685.205 402.415C681.602 403.919 679.529 406.006 676.892 408.852C649.955 436.264 616.636 443.967 579.481 444.308C575.93 444.341 572.381 444.405 568.83 444.477C566.066 444.531 563.301 444.569 560.535 444.603C558.594 444.629 556.652 444.667 554.711 444.705C552.946 444.716 552.946 444.716 551.146 444.727C550.116 444.739 549.086 444.752 548.025 444.764C543.783 444.238 541.183 442.393 538.205 439.415C537.378 434.501 537.414 430.6 540.205 426.415C547.262 421.71 555.2 422.134 563.384 422.141C565.783 422.121 568.181 422.1 570.58 422.079C574.316 422.056 578.051 422.04 581.788 422.034C611.869 421.954 636.219 417.08 658.919 395.856C667.916 386.245 672.049 375.723 674.85 363.12C679.759 341.169 689.542 322.907 702.326 304.571C715.334 285.869 726.551 268.273 724.205 244.415C722.803 238.546 720.234 233.423 717.455 228.102C715.534 224.338 714.327 221.703 715.205 217.415C717.245 213.757 718.709 211.745 722.205 209.415C726.045 208.903 728.645 208.601 732.107 210.407C741.754 217.879 745.199 231.945 746.955 243.477C748.826 272.948 737.812 294.992 720.911 318.232C712.451 329.911 705.216 341.864 700.205 355.415C699.846 356.317 699.488 357.22 699.119 358.15C694.408 369.197 694.408 369.197 695.098 380.661C700 387.958 707.048 391.762 715.205 394.415C736.034 401.93 749.341 416.695 758.705 436.352C761.684 443.739 762.726 451.509 763.205 459.415C763.27 460.465 763.336 461.516 763.404 462.598C763.864 476.582 760.506 488.481 753.205 500.415C752.524 501.741 751.851 503.072 751.205 504.415C770.608 513.301 791.975 519.902 813.31 513.516C823.425 509.667 832.132 504.697 840.205 497.415C840.901 496.811 841.597 496.208 842.314 495.586C856.03 482.934 863.302 463.231 867.205 445.415C867.504 444.144 867.803 442.873 868.111 441.563C872.812 419.571 871.147 395.385 867.205 373.415C866.947 371.968 866.947 371.968 866.685 370.493C859.691 332.294 847.844 298.212 821.205 269.415C819.568 272.399 818.474 275.468 817.405 278.693C811.236 297.172 803.417 318.985 788.419 332.18C786.971 333.364 786.971 333.364 787.205 335.415C788.771 336.454 790.386 337.419 792.017 338.352C808.322 348.516 817.153 363.341 822.205 381.415C822.573 382.671 822.942 383.928 823.322 385.223C824.495 390.026 824.506 394.742 824.455 399.665C824.449 400.588 824.443 401.512 824.436 402.464C824.135 423.309 824.135 423.309 817.455 430.227C814.305 431.89 811.758 432.29 808.205 432.415C804.816 431.105 803.486 429.812 801.392 426.852C799.616 421.712 799.533 416.487 800.697 411.165C803.678 395.021 800.315 380.348 791.076 366.817C785.369 359.49 777.414 353.535 768.017 352.075C765.441 352.026 763.52 352.257 761.205 353.415C757.297 353.859 755.459 353.552 751.955 351.665C748.348 348.714 747.438 347.162 746.83 342.602C747.318 338.447 748.382 335.476 751.205 332.415C753.756 330.843 756.393 329.538 759.068 328.188C785.013 313.519 793.259 285.177 801.205 258.415C801.463 257.547 801.722 256.68 801.988 255.786C807.275 237.689 805.243 223.843 796.486 207.395C787.483 191.257 769.936 170.217 751.837 164.317C749.801 163.861 747.759 163.435 745.708 163.047C742.098 162.135 740.37 160.374 738.205 157.415C737.751 156.796 737.297 156.177 736.83 155.54C735.863 152.252 736.438 149.716 737.205 146.415C737.761 145.734 738.318 145.053 738.892 144.352C739.542 143.393 739.542 143.393 740.205 142.415C739.084 137.33 736.531 133.969 733.142 130.165C732.652 129.601 732.162 129.037 731.656 128.457C730.182 126.768 728.695 125.09 727.205 123.415C726.398 122.496 725.591 121.576 724.759 120.629C722.602 118.198 720.415 115.798 718.205 113.415C717.596 112.752 716.988 112.089 716.361 111.407C710.784 105.57 704.485 100.704 698.072 95.8336C696.854 94.9077 695.638 93.9776 694.427 93.0425C683.884 84.9167 672.732 78.0514 661.205 71.4146C660.582 71.0477 659.96 70.6808 659.318 70.3028C619.936 47.1517 572.081 35.605 527.205 29.4146C526.284 29.2847 525.363 29.1549 524.414 29.0211C502.914 26.0987 475.205 22.8419 456.205 35.4146C437.264 50.0402 426.724 71.3722 422.642 94.6177C420.396 114.113 423.318 132.257 429.119 150.805C432.91 163.405 432.638 177.343 427.205 189.415C420.528 201.713 410.438 207.397 397.787 212.364C386.024 217.162 380.983 224.952 376.089 236.243C373.682 242.152 371.75 248.225 370.205 254.415C370.018 255.157 369.832 255.899 369.64 256.664C367.844 264.599 367.878 272.472 367.902 280.577C367.751 288.623 367.751 288.623 364.978 292.641C360.664 295.399 357.152 295.277 352.205 294.415C349.34 292.839 348.61 291.556 347.533 288.52C341.62 265.07 349.183 236.744 360.517 216.04C368.172 203.667 377.622 195.191 391.33 190.415C399.308 187.631 404.839 184.48 409.205 176.977C411.308 169.482 409.989 163.826 407.455 156.727C405.073 149.653 403.257 142.629 401.892 135.29C401.733 134.438 401.574 133.586 401.411 132.709C398.212 114.787 398.104 97.1858 402.205 79.4146C402.46 78.2596 402.715 77.1046 402.978 75.9146C406.449 62.1564 412.737 48.6684 421.576 37.5435C423.09 35.5645 424.179 33.6776 425.205 31.4146C422.685 30.7643 420.164 30.1192 417.642 29.4771C416.585 29.2035 416.585 29.2035 415.507 28.9244C414.808 28.7471 414.109 28.5699 413.388 28.3873C412.438 28.1438 412.438 28.1438 411.468 27.8953C404.067 26.3235 396.792 26.196 389.256 26.1744C387.237 26.1648 385.219 26.1337 383.201 26.1021C363.124 26.0236 344.108 31.2751 328.22 44.0045Z"/>
</mask>
<path d="M440.302 11.5591C445.668 13.1408 449.739 11.3693 454.58 8.97711C467.993 2.6959 482.231 3.1748 496.767 3.16461C497.634 3.16394 498.501 3.16326 499.394 3.16257C513.858 3.18039 527.923 3.99214 542.205 6.41461C543.221 6.5809 544.238 6.74719 545.286 6.91852C580.927 12.8643 615.281 23.6361 648.205 38.4146C649.809 39.1344 649.809 39.1344 651.446 39.8687C681.176 53.3498 707.499 70.9784 731.205 93.4146C731.728 93.9041 732.252 94.3937 732.791 94.898C746.663 107.939 760.36 123.507 766.017 142.083C767.722 145.431 770.45 146.992 773.517 148.977C780.561 153.765 786.716 159.165 792.824 165.085C794 166.218 795.202 167.325 796.408 168.426C814.237 185.132 827.575 209.47 829.017 233.915C829.646 243.259 832.271 247.071 839.205 253.415C841.415 255.867 843.503 258.411 845.58 260.977C846.132 261.658 846.684 262.339 847.253 263.041C871.029 292.822 883.825 329.577 889.799 366.921C890.202 369.398 890.653 371.864 891.107 374.333C898.036 414.682 894.442 462.516 871.283 497.301C855.444 519.411 833.783 534.327 806.775 539.118C803.899 539.45 801.097 539.465 798.205 539.415C798.239 540.54 798.274 541.665 798.31 542.825C798.996 574.253 786.272 601.473 764.92 624.102C733.919 655.841 687.631 670.675 644.095 671.618C624.052 671.82 604.572 671.038 585.205 665.415C586.655 672.887 588.275 680.313 589.962 687.735C590.227 688.9 590.491 690.066 590.763 691.266C591.617 695.024 592.473 698.782 593.33 702.54C593.621 703.818 593.912 705.097 594.212 706.414C597.602 721.28 601.025 736.133 604.767 750.915C605.082 752.161 605.396 753.407 605.721 754.692C606.774 758.844 607.832 762.995 608.919 767.139C612.404 780.441 614.763 792.667 608.205 805.415C603.144 813.713 596.468 819.258 587.205 822.29C575.261 825.07 562.886 824.884 552.205 818.415C539.465 809.575 534.823 796.529 530.205 782.415C524.768 766.033 518.791 749.89 512.58 733.79C512.218 732.85 511.857 731.911 511.485 730.943C502.74 708.141 502.74 708.141 491.892 686.29C491.423 685.448 490.953 684.606 490.469 683.738C482.674 669.988 473.214 658.709 462.205 647.415C461.304 646.474 460.402 645.533 459.474 644.563C453.749 638.683 447.601 633.542 441.205 628.415C423.726 614.197 408.799 599.129 399.205 578.415C399.205 577.755 399.205 577.095 399.205 576.415C398.107 576.555 397.01 576.695 395.879 576.839C382.765 578.418 369.78 578.816 356.58 578.79C354.995 578.788 354.995 578.788 353.377 578.787C337.651 578.744 322.533 578.26 307.205 574.415C306.212 574.173 305.22 573.932 304.198 573.683C279.438 567.496 256.646 557.123 237.205 540.415C236.461 539.815 235.717 539.216 234.951 538.598C217.109 523.735 206.949 502.696 204.466 479.876C204.251 477.03 204.184 474.264 204.205 471.415C203.378 471.436 202.551 471.457 201.699 471.478C145.531 472.698 83.1381 463.635 40.2046 424.415C39.3951 423.688 38.5855 422.961 37.7515 422.211C21.4273 406.801 9.85546 384.947 8.20458 362.415C8.20881 360.364 8.28433 358.326 8.37108 356.277C8.66264 348.682 7.92202 342.038 5.82958 334.727C5.60021 333.923 5.37084 333.119 5.13451 332.29C4.90885 331.5 4.68318 330.709 4.45067 329.895C-5.80729 293.829 2.60817 251.926 20.0662 219.521C23.905 212.665 28.1469 206.445 33.2046 200.415C33.643 199.884 34.0815 199.354 34.5332 198.808C42.6611 188.977 42.6611 188.977 46.3999 185.192C51.5406 179.961 54.2004 174.476 57.1372 167.861C60.2884 160.901 64.2606 155.271 69.2046 149.415C69.8904 148.601 70.5761 147.788 71.2827 146.95C73.5333 144.378 75.8482 141.89 78.2046 139.415C78.7112 138.881 79.2178 138.347 79.7397 137.797C91.7054 125.269 104.782 114.983 119.205 105.415C120.206 104.737 121.208 104.059 122.24 103.36C132.718 96.5511 144.662 90.6546 156.955 88.1021C161.116 86.9723 162.382 85.1335 164.58 81.4771C165.409 80.0114 165.409 80.0114 166.255 78.5162C184.58 49.3585 228.763 32.6281 260.205 24.4146C261.022 24.2 261.839 23.9854 262.681 23.7642C274.506 20.8081 285.647 20.3455 297.746 20.6672C311.007 21.0076 320.412 20.7305 331.373 12.6163C342.259 5.47417 356.543 3.13643 369.205 1.41461C370.375 1.23157 371.546 1.04852 372.751 0.859925C395.144 -2.02782 419.802 2.56219 440.302 11.5591ZM328.22 44.0045C325.055 46.5323 323.651 47.4298 319.517 47.2896C317.79 46.8333 316.063 46.3734 314.347 45.8748C280.301 38.5621 238.724 54.9692 210.58 72.9771C208.436 74.4288 206.31 75.908 204.205 77.4146C203.351 78.0237 203.351 78.0237 202.479 78.6451C190.683 86.74 190.683 86.74 183.205 98.4146C182.409 108.284 184.864 118.643 191.205 126.415C191.586 126.993 191.968 127.572 192.361 128.169C194.309 129.788 194.309 129.788 197.576 128.903C198.936 128.528 200.292 128.136 201.642 127.727C213.311 124.355 224.49 123.07 236.642 123.102C237.862 123.086 239.082 123.07 240.339 123.053C262.9 123.041 284.217 131.456 300.205 147.415C300.78 147.978 301.354 148.541 301.947 149.122C312.101 159.934 314.816 173.34 314.517 187.61C313.937 199.919 308.418 210.471 301.443 220.376C300.952 221.074 300.461 221.772 299.955 222.492C298.979 223.864 297.99 225.229 296.988 226.582C293.701 231.157 292.355 234.903 291.205 240.415C290.282 242.83 289.258 245.171 288.205 247.532C285.271 255.988 284.787 264.459 284.767 273.352C284.763 274.533 284.759 275.715 284.755 276.932C284.873 285.996 286.445 293.868 289.072 302.489C290.476 307.12 291.4 311.634 290.205 316.415C288.267 319.54 288.267 319.54 285.205 321.415C282.044 322.1 279.364 322.111 276.205 321.415C266.894 315 265.171 300.819 263.205 290.415C260.797 275.645 262.13 261.002 264.841 246.385C265.33 243.734 265.769 241.075 266.205 238.415C254.789 228.598 242.283 224.791 227.248 225.102C214.276 226.434 202.43 233.452 194.205 243.415C185.002 256.409 181.91 269.691 183.205 285.415C184.753 293.6 188.682 300.222 195.205 305.415C198.8 307.557 202.511 309.46 206.301 311.233C210.62 313.302 213.325 314.758 215.205 319.415C216.077 324.004 215.815 327.438 213.33 331.415C210.895 333.706 209.894 334.335 206.587 334.715C202.125 334.319 198.981 332.718 195.08 330.602C194.334 330.2 193.588 329.797 192.82 329.383C178.468 321.317 167.197 308.593 162.669 292.514C157.689 272.433 161.853 252.983 172.205 235.415C174.666 231.872 177.322 228.621 180.205 225.415C180.723 224.804 181.241 224.193 181.775 223.563C193.364 210.81 210.46 204.054 227.396 203.122C244.284 202.597 257.493 206.282 272.205 214.415C273.534 215.09 274.865 215.762 276.205 216.415C285.099 205.445 292.751 193.982 292.537 179.352C291.618 171.229 286.732 164.985 280.919 159.52C264.983 147.161 244.708 145.007 225.205 146.415C218.375 147.397 211.664 149.152 205.185 151.516C198.535 153.521 190.816 153.714 184.251 151.352C172.641 144.799 165.956 133.3 162.099 120.844C161.394 118.043 160.75 115.251 160.205 112.415C155.19 112.972 151.144 114.632 146.705 116.915C146.009 117.268 145.313 117.622 144.597 117.987C130.574 125.261 118.348 134.481 106.708 145.137C105.049 146.647 103.369 148.134 101.669 149.598C91.3874 158.514 81.5846 169.739 76.2046 182.415C76.4973 190.026 79.2979 195.95 84.8296 201.102C95.6299 209.928 107.564 212.7 121.205 211.415C127.85 209.428 131.093 204.276 134.662 198.622C136.205 196.415 136.205 196.415 139.205 194.415C142.596 193.869 145.813 193.868 149.205 194.415C152.029 196.605 153.62 198.245 155.205 201.415C155.606 207.332 154.99 211.042 152.205 216.415C151.689 217.425 151.173 218.436 150.642 219.477C144.317 227.1 132.919 231.958 123.205 233.415C103.29 234.86 83.4529 230.552 67.9546 217.29C64.8095 214.258 62.51 211.103 60.2046 207.415C59.5446 207.415 58.8846 207.415 58.2046 207.415C56.8245 208.794 56.8245 208.794 55.4468 210.641C54.9074 211.336 54.368 212.031 53.8122 212.747C53.2405 213.504 52.6687 214.26 52.0796 215.04C51.4943 215.813 50.909 216.586 50.3059 217.383C29.957 244.704 19.9576 280.289 24.81 314.27C25.7579 319.86 26.9396 325.195 29.2046 330.415C30.4421 330.476 31.6796 330.538 32.9546 330.602C36.3794 331.02 37.0421 331.256 39.6421 333.79C42.2095 338.103 42.711 341.435 42.2046 346.415C39.3281 350.77 37.0421 352.683 32.2046 354.415C32.8872 374.961 40.1123 390.539 54.2046 405.415C57.7194 408.638 61.3855 411.561 65.2046 414.415C66.3183 415.285 66.3183 415.285 67.4546 416.172C89.9868 432.993 116.9 439.969 144.205 444.415C145.273 444.593 146.341 444.771 147.441 444.955C160.547 447.072 173.413 447.601 186.663 447.6C189.359 447.602 192.055 447.62 194.751 447.639C196.468 447.642 198.184 447.644 199.9 447.645C201.108 447.656 201.108 447.656 202.34 447.667C206.741 447.827 206.741 447.827 210.205 445.415C210.659 443.721 211.043 442.008 211.392 440.29C215.724 422.23 225.673 404.024 238.205 390.415C238.916 389.64 238.916 389.64 239.642 388.849C256.452 370.744 277.497 358.367 301.205 351.415C302.288 351.096 303.371 350.777 304.487 350.449C313.06 348.037 321.535 346.449 330.355 345.263C352.965 342.184 371.293 337.092 390.955 325.415C397.941 321.349 405.219 318.443 412.759 315.567C416.414 314.172 419.952 312.609 423.499 310.96C433.161 306.527 443.069 303.635 453.332 300.924C456.205 300.165 459.072 299.385 461.939 298.602C475.282 294.995 488.605 291.815 502.392 290.477C513.913 289.161 525.092 286.789 532.775 277.52C535.89 273.125 538.124 268.477 540.392 263.602C546.152 251.595 555.034 243.002 567.205 237.415C568.13 236.983 569.056 236.551 570.009 236.106C586.312 229.857 607.202 232.011 623.072 238.606C624.568 239.292 626.05 240.009 627.505 240.778C629.411 241.695 629.411 241.695 632.205 240.415C633.965 237.257 635.05 233.834 636.205 230.415C636.551 229.409 636.551 229.409 636.904 228.383C639.709 218.357 640.041 204.91 635.482 195.45C633.766 192.716 631.785 190.363 629.603 187.993C626.447 184.431 625.205 181.597 625.205 176.852C626.391 172.775 627.967 171.099 631.205 168.415C634.808 166.613 638.416 167.376 642.205 168.415C651.667 173.476 656.119 185.152 659.142 194.915C663.623 216.078 658.627 236.134 649.658 255.29C647.269 260.426 647.245 262.261 649.017 267.602C649.576 269.356 649.576 269.356 650.146 271.145C650.734 272.961 651.324 274.777 651.919 276.59C657.493 295.589 649.341 316.326 640.428 332.954C637.03 339.023 632.888 344.276 628.205 349.415C627.234 350.507 627.234 350.507 626.244 351.622C613.555 365.165 596.849 370.069 579.205 373.415C578.099 373.631 576.993 373.848 575.853 374.071C568.267 375.351 560.758 375.617 553.08 375.852C520.674 376.865 478.868 379.443 453.205 402.415C450.584 405.965 449.286 409.33 448.955 413.727C450.243 417.527 451.783 419.69 454.205 422.852C457.84 427.61 459.516 430.398 459.205 436.415C457.63 440.036 456.516 441.207 453.205 443.415C448.628 444.133 445.88 443.562 442.142 440.977C436.687 436.518 433.243 430.691 430.205 424.415C426.439 425.827 422.919 427.546 419.365 429.415C413.467 432.145 408.666 432.65 402.283 432.469C400.516 432.444 398.749 432.419 396.982 432.395C394.238 432.346 391.494 432.291 388.75 432.223C358.029 431.512 334.512 442.43 310.205 460.415C306.476 462.9 303.521 463.042 299.205 462.415C295.767 460.977 295.767 460.977 293.205 458.415C292.055 455.324 291.559 452.659 292.205 449.415C295.78 444.163 300.227 441.015 305.517 437.602C306.31 437.084 307.102 436.567 307.919 436.033C332.321 420.261 360.601 406.995 390.392 410.915C403.029 412.572 412.711 410.799 423.08 403.04C426.749 399.95 429.931 396.565 433.125 393.004C457.612 365.773 495.752 356.649 531.205 354.415C534.372 354.305 537.538 354.237 540.706 354.175C551.941 353.936 563.006 353.191 574.142 351.665C575.259 351.52 576.376 351.375 577.527 351.226C594.831 348.667 607.658 341.383 618.205 327.415C627.834 312.864 633.044 295.666 629.58 278.278C626.828 269.47 621.372 262.787 613.205 258.477C601.605 253.372 589.952 252.626 577.927 257.157C568.037 261.726 562.855 269.077 558.039 278.539C551.427 291.517 543.579 301.976 529.518 307.463C520.328 310.36 511.041 312.035 501.561 313.677C466.047 319.875 432.142 328.862 400.525 346.594C381.359 357.292 364.131 363.066 342.419 366.27C322.442 369.257 303.381 373.376 285.205 382.415C283.445 383.283 283.445 383.283 281.65 384.169C274.928 387.638 268.874 391.4 263.205 396.415C262.355 397.158 261.506 397.902 260.63 398.669C245.024 413.251 228.344 438.613 227.08 460.582C226.39 482.539 230.714 499.895 246.205 516.415C248.728 518.969 251.366 521.218 254.205 523.415C255.211 524.196 256.218 524.977 257.255 525.782C274.047 538.453 293.481 546.245 313.83 551.227C315.008 551.519 315.008 551.519 316.209 551.818C330.764 555.164 345.458 555.794 360.33 555.727C361.181 555.725 362.032 555.723 362.909 555.722C376.525 555.673 389.809 555.037 403.205 552.415C404.108 552.238 405.012 552.061 405.943 551.878C421.983 548.635 437.82 544.348 453.279 538.985C453.905 538.769 454.531 538.554 455.177 538.331C458.234 537.278 461.281 536.211 464.32 535.105C485.774 527.637 508.694 525.372 531.142 522.79C555.07 519.995 578.052 516.775 601.329 510.522C623.079 504.712 623.079 504.712 629.205 506.415C631.647 509.07 632.609 510.802 632.517 514.415C632.513 515.075 632.509 515.735 632.505 516.415C632.137 518.866 631.54 520.31 630.205 522.415C622.287 527.746 613.05 530.209 603.892 532.477C603.227 532.645 602.562 532.813 601.877 532.985C577.322 539.152 552.204 542.055 527.098 544.96C522.922 545.448 518.748 545.946 514.576 546.458C513.295 546.614 512.014 546.77 510.695 546.931C506.449 547.519 502.36 548.376 498.205 549.415C498.488 565.881 510.812 580.366 522.021 591.411C525.631 594.723 529.537 597.568 533.517 600.415C534.769 601.325 534.769 601.325 536.046 602.253C539.541 604.791 543.05 607.307 546.568 609.813C561.14 620.243 561.14 620.243 565.576 626.821C572.815 637.453 579.771 640.73 592.205 643.415C593.097 643.612 593.989 643.81 594.909 644.014C609.06 647.077 622.759 648.602 637.234 648.6C639.371 648.602 641.507 648.62 643.644 648.639C656.646 648.695 669.196 647.436 681.705 643.665C682.598 643.4 683.492 643.135 684.413 642.863C717.228 632.935 748.408 614.32 765.205 583.415C771.447 570.669 775.268 556.906 775.224 542.692C775.221 541.518 775.218 540.343 775.216 539.133C775.212 538.236 775.208 537.339 775.205 536.415C774.314 536.113 773.423 535.811 772.505 535.5C769.121 534.351 765.739 533.199 762.357 532.044C760.908 531.551 759.458 531.058 758.008 530.567C749.104 527.551 740.331 524.337 731.623 520.794C727.766 519.238 723.879 517.786 719.978 516.348C711.65 513.268 703.87 509.928 696.205 505.415C684.005 498.414 669.289 493.98 655.107 494.493C653.976 494.519 652.845 494.544 651.679 494.571C649.317 494.633 646.955 494.712 644.593 494.805C636.173 494.959 636.173 494.959 633.318 493.354C630.98 491.067 629.239 488.693 629.15 485.391C629.637 479.012 629.637 479.012 632.58 475.915C636.928 473.43 640.641 473.23 645.521 473.176C646.246 473.167 646.97 473.157 647.717 473.147C650.067 473.122 652.417 473.109 654.767 473.102C655.563 473.099 656.358 473.097 657.178 473.094C668.98 473.09 679.917 473.678 691.205 477.415C692.126 477.692 693.048 477.969 693.998 478.254C700.67 480.556 706.38 484.582 712.201 488.489C716.81 491.444 720.824 491.958 726.205 491.415C731.673 489.555 735.132 486.2 738.205 481.415C743.077 471.196 742.289 458.928 739.236 448.286C734.726 435.73 726.199 424.58 714.205 418.415C711.089 417.112 707.963 415.87 704.808 414.668C697.289 411.766 690.78 408.279 685.205 402.415C681.602 403.919 679.529 406.006 676.892 408.852C649.955 436.264 616.636 443.967 579.481 444.308C575.93 444.341 572.381 444.405 568.83 444.477C566.066 444.531 563.301 444.569 560.535 444.603C558.594 444.629 556.652 444.667 554.711 444.705C552.946 444.716 552.946 444.716 551.146 444.727C550.116 444.739 549.086 444.752 548.025 444.764C543.783 444.238 541.183 442.393 538.205 439.415C537.378 434.501 537.414 430.6 540.205 426.415C547.262 421.71 555.2 422.134 563.384 422.141C565.783 422.121 568.181 422.1 570.58 422.079C574.316 422.056 578.051 422.04 581.788 422.034C611.869 421.954 636.219 417.08 658.919 395.856C667.916 386.245 672.049 375.723 674.85 363.12C679.759 341.169 689.542 322.907 702.326 304.571C715.334 285.869 726.551 268.273 724.205 244.415C722.803 238.546 720.234 233.423 717.455 228.102C715.534 224.338 714.327 221.703 715.205 217.415C717.245 213.757 718.709 211.745 722.205 209.415C726.045 208.903 728.645 208.601 732.107 210.407C741.754 217.879 745.199 231.945 746.955 243.477C748.826 272.948 737.812 294.992 720.911 318.232C712.451 329.911 705.216 341.864 700.205 355.415C699.846 356.317 699.488 357.22 699.119 358.15C694.408 369.197 694.408 369.197 695.098 380.661C700 387.958 707.048 391.762 715.205 394.415C736.034 401.93 749.341 416.695 758.705 436.352C761.684 443.739 762.726 451.509 763.205 459.415C763.27 460.465 763.336 461.516 763.404 462.598C763.864 476.582 760.506 488.481 753.205 500.415C752.524 501.741 751.851 503.072 751.205 504.415C770.608 513.301 791.975 519.902 813.31 513.516C823.425 509.667 832.132 504.697 840.205 497.415C840.901 496.811 841.597 496.208 842.314 495.586C856.03 482.934 863.302 463.231 867.205 445.415C867.504 444.144 867.803 442.873 868.111 441.563C872.812 419.571 871.147 395.385 867.205 373.415C866.947 371.968 866.947 371.968 866.685 370.493C859.691 332.294 847.844 298.212 821.205 269.415C819.568 272.399 818.474 275.468 817.405 278.693C811.236 297.172 803.417 318.985 788.419 332.18C786.971 333.364 786.971 333.364 787.205 335.415C788.771 336.454 790.386 337.419 792.017 338.352C808.322 348.516 817.153 363.341 822.205 381.415C822.573 382.671 822.942 383.928 823.322 385.223C824.495 390.026 824.506 394.742 824.455 399.665C824.449 400.588 824.443 401.512 824.436 402.464C824.135 423.309 824.135 423.309 817.455 430.227C814.305 431.89 811.758 432.29 808.205 432.415C804.816 431.105 803.486 429.812 801.392 426.852C799.616 421.712 799.533 416.487 800.697 411.165C803.678 395.021 800.315 380.348 791.076 366.817C785.369 359.49 777.414 353.535 768.017 352.075C765.441 352.026 763.52 352.257 761.205 353.415C757.297 353.859 755.459 353.552 751.955 351.665C748.348 348.714 747.438 347.162 746.83 342.602C747.318 338.447 748.382 335.476 751.205 332.415C753.756 330.843 756.393 329.538 759.068 328.188C785.013 313.519 793.259 285.177 801.205 258.415C801.463 257.547 801.722 256.68 801.988 255.786C807.275 237.689 805.243 223.843 796.486 207.395C787.483 191.257 769.936 170.217 751.837 164.317C749.801 163.861 747.759 163.435 745.708 163.047C742.098 162.135 740.37 160.374 738.205 157.415C737.751 156.796 737.297 156.177 736.83 155.54C735.863 152.252 736.438 149.716 737.205 146.415C737.761 145.734 738.318 145.053 738.892 144.352C739.542 143.393 739.542 143.393 740.205 142.415C739.084 137.33 736.531 133.969 733.142 130.165C732.652 129.601 732.162 129.037 731.656 128.457C730.182 126.768 728.695 125.09 727.205 123.415C726.398 122.496 725.591 121.576 724.759 120.629C722.602 118.198 720.415 115.798 718.205 113.415C717.596 112.752 716.988 112.089 716.361 111.407C710.784 105.57 704.485 100.704 698.072 95.8336C696.854 94.9077 695.638 93.9776 694.427 93.0425C683.884 84.9167 672.732 78.0514 661.205 71.4146C660.582 71.0477 659.96 70.6808 659.318 70.3028C619.936 47.1517 572.081 35.605 527.205 29.4146C526.284 29.2847 525.363 29.1549 524.414 29.0211C502.914 26.0987 475.205 22.8419 456.205 35.4146C437.264 50.0402 426.724 71.3722 422.642 94.6177C420.396 114.113 423.318 132.257 429.119 150.805C432.91 163.405 432.638 177.343 427.205 189.415C420.528 201.713 410.438 207.397 397.787 212.364C386.024 217.162 380.983 224.952 376.089 236.243C373.682 242.152 371.75 248.225 370.205 254.415C370.018 255.157 369.832 255.899 369.64 256.664C367.844 264.599 367.878 272.472 367.902 280.577C367.751 288.623 367.751 288.623 364.978 292.641C360.664 295.399 357.152 295.277 352.205 294.415C349.34 292.839 348.61 291.556 347.533 288.52C341.62 265.07 349.183 236.744 360.517 216.04C368.172 203.667 377.622 195.191 391.33 190.415C399.308 187.631 404.839 184.48 409.205 176.977C411.308 169.482 409.989 163.826 407.455 156.727C405.073 149.653 403.257 142.629 401.892 135.29C401.733 134.438 401.574 133.586 401.411 132.709C398.212 114.787 398.104 97.1858 402.205 79.4146C402.46 78.2596 402.715 77.1046 402.978 75.9146C406.449 62.1564 412.737 48.6684 421.576 37.5435C423.09 35.5645 424.179 33.6776 425.205 31.4146C422.685 30.7643 420.164 30.1192 417.642 29.4771C416.585 29.2035 416.585 29.2035 415.507 28.9244C414.808 28.7471 414.109 28.5699 413.388 28.3873C412.438 28.1438 412.438 28.1438 411.468 27.8953C404.067 26.3235 396.792 26.196 389.256 26.1744C387.237 26.1648 385.219 26.1337 383.201 26.1021C363.124 26.0236 344.108 31.2751 328.22 44.0045Z" stroke="black" stroke-width="2" mask="url(#path-1-inside-1_96_5)"/>
</svg>
