<svg width="870" height="688" viewBox="0 0 870 688" fill="none" xmlns="http://www.w3.org/2000/svg">
<path d="M135.117 1C136.565 5.14365 137.953 9.30344 139.281 13.4794C140.489 17.6824 141.635 21.8965 142.719 26.1216C143.679 30.3633 144.576 34.6107 145.409 38.8637C146.116 43.1226 146.759 47.3815 147.338 51.6406C147.788 55.8943 148.174 60.1425 148.495 64.3852C148.687 68.6112 148.815 72.8259 148.878 77.0294C148.812 81.2046 148.683 85.3629 148.489 89.5041C148.169 93.6056 147.785 97.6844 147.339 101.74C146.768 105.745 146.135 109.721 145.441 113.669C144.626 117.555 143.752 121.406 142.818 125.223C141.768 128.967 140.661 132.671 139.497 136.335C138.223 139.916 136.895 143.451 135.513 146.942C134.026 150.338 132.49 153.685 130.903 156.981C129.22 160.173 127.491 163.311 125.715 166.394C123.852 169.364 121.946 172.275 119.999 175.127C117.973 177.857 115.91 180.524 113.81 183.128C111.642 185.602 109.441 188.01 107.21 190.351C104.92 192.555 102.604 194.69 100.263 196.755C97.8749 198.678 95.4668 200.528 93.0386 202.306C90.5763 203.936 88.1 205.492 85.6098 206.973C83.0981 208.302 80.5788 209.556 78.0519 210.733C75.5166 211.756 72.9803 212.701 70.4431 213.569C67.9107 214.281 65.3841 214.915 62.8633 215.472C60.3609 215.871 57.8711 216.193 55.3939 216.437C52.9487 216.526 50.523 216.536 48.1167 216.47C45.7562 216.25 43.422 215.954 41.114 215.581C38.8653 215.059 36.6497 214.461 34.4671 213.79C32.3572 212.972 30.2869 212.082 28.2563 211.121C26.3115 210.019 24.4128 208.848 22.5601 207.608C20.8059 206.234 19.104 204.794 17.4544 203.29C15.9153 201.659 14.4345 199.967 13.0119 198.214C11.7114 196.344 10.4748 194.418 9.30187 192.435C8.26189 190.344 7.29091 188.203 6.38894 186.01C5.62985 183.721 4.94453 181.386 4.33298 179.006C3.8734 176.541 3.49188 174.037 3.18844 171.494C3.04503 168.878 2.98348 166.23 3.00377 163.549C3.19113 160.81 3.46357 158.045 3.82107 155.253C4.35153 152.418 4.96969 149.564 5.67558 146.691C6.55908 143.788 7.53233 140.874 8.59531 137.949C9.83934 135.01 11.1745 132.067 12.6008 129.12C14.2102 126.175 15.9115 123.233 17.7047 120.296C19.6817 117.376 21.7507 114.468 23.9116 111.573C26.2558 108.709 28.6913 105.867 31.2181 103.044C33.9262 100.27 36.7243 97.5241 39.6123 94.8064C42.6783 92.153 45.8322 89.5356 49.074 86.9544C52.4891 84.453 55.9894 81.9953 59.5749 79.5815C63.3275 77.2627 67.1619 74.9953 71.0782 72.7791C75.1541 70.6728 79.3078 68.6251 83.5392 66.6358C87.9216 64.7707 92.377 62.9709 96.9054 61.2367C101.575 59.6399 106.312 58.1152 111.117 56.6624C116.051 55.3599 121.048 54.1354 126.106 52.9891C131.281 52.0046 136.512 51.1039 141.799 50.2869C147.189 49.6426 152.627 49.087 158.114 48.6203C163.691 48.3357 169.309 48.1445 174.967 48.0466C180.7 48.1393 186.466 48.3292 192.265 48.6162C198.123 49.101 204.005 49.6861 209.912 50.3716C215.861 51.2606 221.826 52.2525 227.808 53.3473C233.814 54.6499 239.827 56.0571 245.849 57.569C251.877 59.2916 257.903 61.1199 263.929 63.0539C269.943 65.1999 275.946 67.4518 281.94 69.8098C287.904 72.3795 293.848 75.0547 299.773 77.8355C305.65 80.8261 311.499 83.921 317.319 87.1201C323.073 90.5258 328.79 94.0337 334.469 97.6437C340.064 101.455 345.613 105.366 351.116 109.376C356.517 113.582 361.863 117.883 367.154 122.28C372.327 126.864 377.437 131.539 382.483 136.305C387.394 141.249 392.234 146.28 397.003 151.396C401.621 156.679 406.16 162.043 410.62 167.487C414.916 173.085 419.125 178.757 423.248 184.503C427.192 190.39 431.043 196.344 434.802 202.364C438.37 208.511 441.838 214.716 445.209 220.981C448.376 227.355 451.44 233.781 454.399 240.257C457.146 246.826 459.784 253.437 462.313 260.091C464.621 266.82 466.817 273.581 468.9 280.376C470.755 287.227 472.494 294.102 474.117 301C475.506 307.935 476.777 314.884 477.931 321.847C478.846 328.827 479.642 335.811 480.319 342.798C480.755 349.783 481.072 356.761 481.268 363.733C481.224 370.681 481.059 377.613 480.775 384.527C480.252 391.398 479.61 398.242 478.849 405.059C477.853 411.811 476.739 418.527 475.509 425.205C474.047 431.798 472.471 438.344 470.782 444.843C468.867 451.238 466.843 457.575 464.708 463.855C462.357 470.011 459.901 476.101 457.338 482.124C454.569 488.004 451.701 493.809 448.731 499.538C445.567 505.106 442.309 510.589 438.957 515.988C435.424 521.21 431.803 526.339 428.095 531.375C424.221 536.217 420.267 540.96 416.233 545.602C412.049 550.035 407.793 554.362 403.467 558.581C399.007 562.578 394.485 566.462 389.901 570.232C385.201 573.769 380.45 577.187 375.645 580.485C370.745 583.54 365.803 586.471 360.818 589.278C355.758 591.833 350.666 594.259 345.542 596.558C340.364 598.598 335.165 600.506 329.944 602.284C324.692 603.797 319.43 605.178 314.157 606.425C308.875 607.405 303.594 608.25 298.314 608.961C293.047 609.404 287.793 609.712 282.551 609.885C277.346 609.79 272.164 609.562 267.006 609.2C261.907 608.572 256.844 607.812 251.816 606.92C246.87 605.767 241.97 604.484 237.117 603.073C232.368 601.406 227.676 599.614 223.043 597.696C218.535 595.532 214.096 593.247 209.725 590.841C205.501 588.199 201.356 585.441 197.29 582.568C193.391 579.471 189.582 576.265 185.861 572.95C182.326 569.424 178.891 565.797 175.553 562.068C172.42 558.145 169.394 554.128 166.476 550.017C163.779 545.729 161.197 541.356 158.731 536.898C156.502 532.281 154.395 527.589 152.411 522.822C150.679 517.916 149.075 512.945 147.601 507.909C146.391 502.755 145.315 497.547 144.374 492.285C143.707 486.927 143.18 481.526 142.792 476.083C142.688 470.566 142.727 465.019 142.909 459.441C143.381 453.814 143.999 448.168 144.763 442.503C145.822 436.814 147.029 431.118 148.384 425.416C150.036 419.714 151.837 414.018 153.786 408.329C156.033 402.665 158.429 397.02 160.973 391.393C163.813 385.817 166.8 380.273 169.934 374.76C173.36 369.323 176.931 363.93 180.647 358.581C184.649 353.332 188.792 348.14 193.076 343.004C197.638 337.993 202.337 333.05 207.172 328.176C212.276 323.45 217.51 318.805 222.875 314.239C228.496 309.846 234.242 305.543 240.112 301.332C246.223 297.314 252.452 293.398 258.797 289.585C265.368 285.985 272.047 282.497 278.834 279.122C285.829 275.98 292.923 272.959 300.117 270.06C307.498 267.412 314.969 264.894 322.528 262.506C330.254 260.386 338.059 258.404 345.941 256.559C353.969 254.996 362.062 253.578 370.222 252.304C378.504 251.325 386.839 250.496 395.229 249.818C403.715 249.445 412.243 249.227 420.812 249.164C429.452 249.415 438.121 249.825 446.818 250.394C455.559 251.283 464.315 252.333 473.087 253.545C481.875 255.081 490.665 256.78 499.457 258.642C508.238 260.83 517.007 263.181 525.764 265.696C534.482 268.536 543.175 271.539 551.841 274.704C560.442 278.192 569.003 281.841 577.524 285.649C585.953 289.776 594.327 294.059 602.648 298.5C610.85 303.251 618.984 308.154 627.052 313.211C634.973 318.568 642.814 324.072 650.576 329.723C658.165 335.663 665.662 341.744 673.068 347.965C680.276 354.461 687.38 361.089 694.38 367.85C701.159 374.87 707.824 382.013 714.372 389.281C720.678 396.789 726.859 404.411 732.913 412.148C738.704 420.103 744.359 428.164 749.878 436.328C755.116 444.689 760.209 453.144 765.157 461.691C769.806 470.411 774.303 479.212 778.646 488.094C782.677 497.124 786.547 506.222 790.257 515.388C793.642 524.676 796.86 534.018 799.913 543.414C802.629 552.905 805.174 562.437 807.549 572.008C809.579 581.646 811.435 591.31 813.117 601" stroke="black" stroke-width="6"/>
<path d="M813.695 687.346L764.676 603.649L861.669 603.046L813.695 687.346Z" fill="black"/>
</svg>
